<svg width="102" height="102" viewBox="0 0 102 102" fill="none" xmlns="http://www.w3.org/2000/svg">
<path d="M15 0.5H86.6201C94.6282 0.500062 101.12 6.99191 101.12 15V86.6201C101.12 94.6282 94.6282 101.12 86.6201 101.12H15C6.99191 101.12 0.500062 94.6282 0.5 86.6201V15C0.5 6.99187 6.99187 0.5 15 0.5Z" stroke="#FF6B00"/>
<path d="M38.3804 29.97C37.5504 29.97 36.7404 30 35.9404 30.06C34.4204 30.17 34.0704 32.28 35.4804 32.86C39.9704 34.72 42.8704 37.66 42.8704 40.96V70.57C42.8704 71.38 43.5204 72.03 44.3304 72.03H55.6304C56.4404 72.03 57.0904 71.38 57.0904 70.57V40.96C57.0904 40.85 57.0904 40.74 57.0804 40.64C57.0804 40.58 57.0804 40.53 57.0804 40.47C57.0804 40.36 57.0904 40.26 57.0904 40.15C57.0904 34.53 48.7104 29.97 38.3704 29.97H38.3804Z" fill="#FF6B00"/>
<path d="M58.0204 30.04C58.0204 30.04 57.9604 30.04 57.9204 30.04C56.4504 30.04 55.8704 31.96 57.1204 32.73C60.6104 34.88 62.5104 38 62.5104 41.03V70.64C62.5104 71.45 63.1604 72.1 63.9704 72.1H75.2704C76.0804 72.1 76.7304 71.45 76.7304 70.64V41.03C76.7304 40.92 76.7304 40.81 76.7204 40.71C76.7204 40.65 76.7204 40.6 76.7204 40.54C76.7204 40.43 76.7304 40.33 76.7304 40.22C76.7304 34.6 68.3504 30.04 58.0104 30.04H58.0204Z" fill="#FF6B00"/>
<path d="M28.5299 35.28C27.8699 35.14 27.1799 35.04 26.4699 34.98C25.6199 34.9 24.8799 35.58 24.8799 36.44V70.57C24.8799 71.38 25.5299 72.03 26.3399 72.03H36.2799C37.0899 72.03 37.7399 71.38 37.7399 70.57V44.07C37.7399 39.91 33.8499 36.4 28.5199 35.29L28.5299 35.28Z" fill="#FF6B00"/>
</svg>
