<svg width="224" height="40" viewBox="0 0 224 40" fill="none" xmlns="http://www.w3.org/2000/svg">
<path d="M34.0956 0H5.90435C2.64347 0 0 2.64347 0 5.90435V34.0956C0 37.3565 2.64347 40 5.90435 40H34.0956C37.3565 40 40 37.3565 40 34.0956V5.90435C40 2.64347 37.3565 0 34.0956 0Z" fill="#FF6B00"/>
<path d="M34.0956 0H5.90435C2.64347 0 0 2.64347 0 5.90435V34.0956C0 37.3565 2.64347 40 5.90435 40H34.0956C37.3565 40 40 37.3565 40 34.0956V5.90435C40 2.64347 37.3565 0 34.0956 0Z" fill="#FF6B00"/>
<path d="M15.1074 11.7969C14.7807 11.7969 14.4619 11.8087 14.147 11.8323C13.5487 11.8756 13.4109 12.7061 13.9659 12.9344C15.7333 13.6666 16.8748 14.8238 16.8748 16.1228V27.778C16.8748 28.0968 17.1307 28.3527 17.4495 28.3527H21.8974C22.2163 28.3527 22.4721 28.0968 22.4721 27.778V16.1228C22.4721 16.0795 22.4721 16.0362 22.4682 15.9968C22.4682 15.9732 22.4682 15.9535 22.4682 15.9299C22.4682 15.8866 22.4721 15.8473 22.4721 15.804C22.4721 13.5918 19.1736 11.7969 15.1035 11.7969H15.1074Z" fill="white"/>
<path d="M22.8382 11.8245C22.8382 11.8245 22.8146 11.8245 22.7989 11.8245C22.2202 11.8245 21.9919 12.5802 22.484 12.8833C23.8577 13.7296 24.6056 14.9577 24.6056 16.1504V27.8056C24.6056 28.1244 24.8614 28.3803 25.1803 28.3803H29.6282C29.9471 28.3803 30.2029 28.1244 30.2029 27.8056V16.1504C30.2029 16.1071 30.2029 16.0638 30.199 16.0244C30.199 16.0008 30.199 15.9811 30.199 15.9575C30.199 15.9142 30.2029 15.8748 30.2029 15.8315C30.2029 13.6194 26.9043 11.8245 22.8343 11.8245H22.8382Z" fill="white"/>
<path d="M11.23 13.8871C10.9702 13.832 10.6986 13.7926 10.4191 13.769C10.0846 13.7375 9.79327 14.0052 9.79327 14.3437V27.7781C9.79327 28.0969 10.0491 28.3527 10.368 28.3527H14.2806C14.5994 28.3527 14.8553 28.0969 14.8553 27.7781V17.347C14.8553 15.7096 13.3241 14.3279 11.2261 13.891L11.23 13.8871Z" fill="white"/>
<path d="M66.2591 18.8828H64.0815C64.0418 18.6011 63.9605 18.3509 63.8379 18.1321C63.7153 17.91 63.5578 17.7211 63.3656 17.5653C63.1734 17.4096 62.9513 17.2902 62.6994 17.2074C62.4508 17.1245 62.1807 17.0831 61.8891 17.0831C61.3621 17.0831 60.903 17.214 60.5119 17.4759C60.1208 17.7344 59.8176 18.1122 59.6021 18.6094C59.3867 19.1032 59.279 19.7031 59.279 20.4091C59.279 21.1349 59.3867 21.7448 59.6021 22.2386C59.8209 22.7325 60.1258 23.1054 60.5169 23.3572C60.908 23.6091 61.3604 23.7351 61.8741 23.7351C62.1625 23.7351 62.4293 23.697 62.6746 23.6207C62.9231 23.5445 63.1436 23.4335 63.3358 23.2876C63.528 23.1385 63.6871 22.9579 63.8131 22.7457C63.9423 22.5336 64.0318 22.2917 64.0815 22.0199L66.2591 22.0298C66.2027 22.4972 66.0619 22.9479 65.8365 23.3821C65.6144 23.813 65.3145 24.1991 64.9366 24.5405C64.5621 24.8786 64.1147 25.147 63.5943 25.3459C63.0773 25.5414 62.4923 25.6392 61.8393 25.6392C60.9312 25.6392 60.1192 25.4337 59.4033 25.0227C58.6907 24.6117 58.1272 24.0168 57.7129 23.2379C57.3019 22.459 57.0964 21.5161 57.0964 20.4091C57.0964 19.2988 57.3052 18.3542 57.7229 17.5753C58.1405 16.7964 58.7072 16.2031 59.4231 15.7955C60.1391 15.3845 60.9444 15.179 61.8393 15.179C62.4293 15.179 62.9762 15.2618 63.48 15.4276C63.9871 15.5933 64.4362 15.8352 64.8273 16.1534C65.2184 16.4683 65.5365 16.8544 65.7818 17.3118C66.0304 17.7692 66.1895 18.2929 66.2591 18.8828ZM68.7828 25.5V15.3182H72.7998C73.5687 15.3182 74.225 15.4557 74.7686 15.7308C75.3154 16.0026 75.7314 16.3887 76.0164 16.8892C76.3048 17.3864 76.449 17.9714 76.449 18.6442C76.449 19.3203 76.3031 19.902 76.0115 20.3892C75.7198 20.8731 75.2972 21.2443 74.7437 21.5028C74.1935 21.7614 73.5273 21.8906 72.7451 21.8906H70.0555V20.1605H72.3971C72.8081 20.1605 73.1495 20.1042 73.4213 19.9915C73.693 19.8788 73.8952 19.7098 74.0278 19.4844C74.1637 19.259 74.2316 18.9789 74.2316 18.6442C74.2316 18.3061 74.1637 18.0211 74.0278 17.7891C73.8952 17.5571 73.6914 17.3814 73.4163 17.2621C73.1445 17.1394 72.8015 17.0781 72.3872 17.0781H70.9355V25.5H68.7828ZM74.2813 20.8665L76.8119 25.5H74.4355L71.9596 20.8665H74.2813ZM78.9503 25.5V15.3182H85.8111V17.093H81.103V19.5192H85.4581V21.294H81.103V23.7251H85.8309V25.5H78.9503ZM90.2575 25.5H87.9507L91.4656 15.3182H94.2397L97.7497 25.5H95.4429L92.8924 17.6449H92.8129L90.2575 25.5ZM90.1133 21.4979H95.5622V23.1783H90.1133V21.4979ZM98.3233 17.093V15.3182H106.685V17.093H103.568V25.5H101.44V17.093H98.3233ZM111.195 15.3182V25.5H109.043V15.3182H111.195ZM115.786 15.3182L118.247 23.054H118.341L120.807 15.3182H123.194L119.684 25.5H116.91L113.395 15.3182H115.786ZM125.399 25.5V15.3182H132.26V17.093H127.552V19.5192H131.907V21.294H127.552V23.7251H132.28V25.5H125.399ZM148.155 18.8828H145.978C145.938 18.6011 145.857 18.3509 145.734 18.1321C145.611 17.91 145.454 17.7211 145.262 17.5653C145.07 17.4096 144.847 17.2902 144.596 17.2074C144.347 17.1245 144.077 17.0831 143.785 17.0831C143.258 17.0831 142.799 17.214 142.408 17.4759C142.017 17.7344 141.714 18.1122 141.498 18.6094C141.283 19.1032 141.175 19.7031 141.175 20.4091C141.175 21.1349 141.283 21.7448 141.498 22.2386C141.717 22.7325 142.022 23.1054 142.413 23.3572C142.804 23.6091 143.257 23.7351 143.77 23.7351C144.059 23.7351 144.325 23.697 144.571 23.6207C144.819 23.5445 145.04 23.4335 145.232 23.2876C145.424 23.1385 145.583 22.9579 145.709 22.7457C145.838 22.5336 145.928 22.2917 145.978 22.0199L148.155 22.0298C148.099 22.4972 147.958 22.9479 147.733 23.3821C147.511 23.813 147.211 24.1991 146.833 24.5405C146.458 24.8786 146.011 25.147 145.49 25.3459C144.973 25.5414 144.388 25.6392 143.736 25.6392C142.827 25.6392 142.015 25.4337 141.299 25.0227C140.587 24.6117 140.023 24.0168 139.609 23.2379C139.198 22.459 138.993 21.5161 138.993 20.4091C138.993 19.2988 139.201 18.3542 139.619 17.5753C140.037 16.7964 140.603 16.2031 141.319 15.7955C142.035 15.3845 142.841 15.179 143.736 15.179C144.325 15.179 144.872 15.2618 145.376 15.4276C145.883 15.5933 146.332 15.8352 146.723 16.1534C147.115 16.4683 147.433 16.8544 147.678 17.3118C147.927 17.7692 148.086 18.2929 148.155 18.8828ZM160.035 20.4091C160.035 21.5194 159.825 22.464 159.404 23.2429C158.986 24.0218 158.416 24.6167 157.694 25.0277C156.975 25.4354 156.166 25.6392 155.268 25.6392C154.363 25.6392 153.551 25.4337 152.832 25.0227C152.112 24.6117 151.544 24.0168 151.126 23.2379C150.709 22.459 150.5 21.5161 150.5 20.4091C150.5 19.2988 150.709 18.3542 151.126 17.5753C151.544 16.7964 152.112 16.2031 152.832 15.7955C153.551 15.3845 154.363 15.179 155.268 15.179C156.166 15.179 156.975 15.3845 157.694 15.7955C158.416 16.2031 158.986 16.7964 159.404 17.5753C159.825 18.3542 160.035 19.2988 160.035 20.4091ZM157.853 20.4091C157.853 19.6899 157.745 19.0833 157.53 18.5895C157.318 18.0956 157.018 17.7211 156.63 17.4659C156.242 17.2107 155.788 17.0831 155.268 17.0831C154.747 17.0831 154.293 17.2107 153.905 17.4659C153.518 17.7211 153.216 18.0956 153.001 18.5895C152.789 19.0833 152.682 19.6899 152.682 20.4091C152.682 21.1283 152.789 21.7348 153.001 22.2287C153.216 22.7225 153.518 23.0971 153.905 23.3523C154.293 23.6075 154.747 23.7351 155.268 23.7351C155.788 23.7351 156.242 23.6075 156.63 23.3523C157.018 23.0971 157.318 22.7225 157.53 22.2287C157.745 21.7348 157.853 21.1283 157.853 20.4091ZM171.126 15.3182V25.5H169.267L164.837 19.0916H164.763V25.5H162.61V15.3182H164.499L168.894 21.7216H168.984V15.3182H171.126ZM182.869 18.8828H180.691C180.651 18.6011 180.57 18.3509 180.448 18.1321C180.325 17.91 180.167 17.7211 179.975 17.5653C179.783 17.4096 179.561 17.2902 179.309 17.2074C179.06 17.1245 178.79 17.0831 178.499 17.0831C177.972 17.0831 177.513 17.214 177.122 17.4759C176.73 17.7344 176.427 18.1122 176.212 18.6094C175.996 19.1032 175.889 19.7031 175.889 20.4091C175.889 21.1349 175.996 21.7448 176.212 22.2386C176.43 22.7325 176.735 23.1054 177.127 23.3572C177.518 23.6091 177.97 23.7351 178.484 23.7351C178.772 23.7351 179.039 23.697 179.284 23.6207C179.533 23.5445 179.753 23.4335 179.945 23.2876C180.138 23.1385 180.297 22.9579 180.423 22.7457C180.552 22.5336 180.641 22.2917 180.691 22.0199L182.869 22.0298C182.812 22.4972 182.671 22.9479 182.446 23.3821C182.224 23.813 181.924 24.1991 181.546 24.5405C181.172 24.8786 180.724 25.147 180.204 25.3459C179.687 25.5414 179.102 25.6392 178.449 25.6392C177.541 25.6392 176.729 25.4337 176.013 25.0227C175.3 24.6117 174.737 24.0168 174.323 23.2379C173.912 22.459 173.706 21.5161 173.706 20.4091C173.706 19.2988 173.915 18.3542 174.332 17.5753C174.75 16.7964 175.317 16.2031 176.033 15.7955C176.749 15.3845 177.554 15.179 178.449 15.179C179.039 15.179 179.586 15.2618 180.09 15.4276C180.597 15.5933 181.046 15.8352 181.437 16.1534C181.828 16.4683 182.146 16.8544 182.391 17.3118C182.64 17.7692 182.799 18.2929 182.869 18.8828ZM185.392 25.5V15.3182H192.253V17.093H187.545V19.5192H191.9V21.294H187.545V23.7251H192.273V25.5H185.392ZM194.945 25.5V15.3182H198.962C199.734 15.3182 200.392 15.4657 200.935 15.7607C201.479 16.0523 201.893 16.4583 202.178 16.9787C202.467 17.4957 202.611 18.0923 202.611 18.7685C202.611 19.4446 202.465 20.0412 202.173 20.5582C201.882 21.0753 201.459 21.478 200.906 21.7663C200.355 22.0547 199.689 22.1989 198.907 22.1989H196.347V20.4737H198.559C198.973 20.4737 199.315 20.4025 199.583 20.2599C199.855 20.1141 200.057 19.9136 200.19 19.6584C200.326 19.3999 200.393 19.1032 200.393 18.7685C200.393 18.4304 200.326 18.1354 200.19 17.8835C200.057 17.6283 199.855 17.4311 199.583 17.2919C199.311 17.1494 198.967 17.0781 198.549 17.0781H197.097V25.5H194.945ZM204.601 17.093V15.3182H212.964V17.093H209.846V25.5H207.718V17.093H204.601ZM220.844 18.2464C220.804 17.8454 220.634 17.5339 220.332 17.3118C220.03 17.0897 219.621 16.9787 219.104 16.9787C218.753 16.9787 218.456 17.0284 218.214 17.1278C217.972 17.224 217.787 17.3582 217.657 17.5305C217.531 17.7029 217.468 17.8984 217.468 18.1172C217.462 18.2995 217.5 18.4586 217.583 18.5945C217.669 18.7304 217.787 18.848 217.936 18.9474C218.085 19.0436 218.257 19.1281 218.453 19.201C218.648 19.2706 218.857 19.3303 219.079 19.38L219.994 19.5987C220.438 19.6982 220.846 19.8307 221.217 19.9964C221.588 20.1622 221.91 20.366 222.181 20.608C222.453 20.8499 222.664 21.1349 222.813 21.4631C222.965 21.7912 223.043 22.1674 223.046 22.5916C223.043 23.2147 222.884 23.755 222.569 24.2124C222.258 24.6664 221.807 25.0194 221.217 25.2713C220.63 25.5199 219.923 25.6442 219.094 25.6442C218.272 25.6442 217.556 25.5182 216.946 25.2663C216.34 25.0144 215.866 24.6416 215.524 24.1477C215.186 23.6506 215.009 23.0357 214.993 22.3033H217.076C217.099 22.6446 217.197 22.9297 217.369 23.1584C217.545 23.3838 217.778 23.5545 218.07 23.6705C218.365 23.7831 218.698 23.8395 219.069 23.8395C219.434 23.8395 219.75 23.7865 220.019 23.6804C220.291 23.5743 220.501 23.4268 220.65 23.2379C220.799 23.049 220.874 22.8319 220.874 22.5866C220.874 22.358 220.806 22.1657 220.67 22.0099C220.537 21.8542 220.342 21.7216 220.083 21.6122C219.828 21.5028 219.515 21.4034 219.144 21.3139L218.035 21.0355C217.177 20.8267 216.499 20.5002 216.002 20.0561C215.505 19.612 215.258 19.0137 215.261 18.2614C215.258 17.6449 215.422 17.1063 215.753 16.6456C216.088 16.1849 216.547 15.8253 217.13 15.5668C217.714 15.3082 218.377 15.179 219.119 15.179C219.875 15.179 220.534 15.3082 221.098 15.5668C221.664 15.8253 222.105 16.1849 222.42 16.6456C222.735 17.1063 222.897 17.6399 222.907 18.2464H220.844Z" fill="white"/>
</svg>
