<svg width="323" height="102" viewBox="0 0 323 102" fill="none" xmlns="http://www.w3.org/2000/svg">
<g clip-path="url(#clip0_2_807)">
<path d="M132.838 14.8661H144.822L150.534 43.0901H150.646L156.414 14.8661H168.342V54.8501H160.95V22.9301H160.838L153.726 54.8501H147.454L140.342 22.9301H140.23V54.8501H132.838V14.8661ZM190.811 39.7861L186.947 21.8101H186.835L182.971 39.7861H190.811ZM191.875 14.8661L202.459 54.8501H194.059L192.211 46.3941H181.571L179.723 54.8501H171.323L181.907 14.8661H191.875ZM205.24 14.8661H220.136C223.496 14.8661 226.11 15.7248 227.976 17.4421C229.843 19.1221 230.776 21.6981 230.776 25.1701C230.776 27.8581 230.235 30.0608 229.152 31.7781C228.07 33.4581 226.39 34.5408 224.112 35.0261V35.1381C226.128 35.4368 227.603 36.0901 228.536 37.0981C229.47 38.1061 230.048 39.7301 230.272 41.9701C230.347 42.7168 230.403 43.5381 230.44 44.4341C230.478 45.2928 230.515 46.2634 230.552 47.3461C230.627 49.4741 230.739 51.0981 230.888 52.2181C231.112 53.3381 231.598 54.1034 232.344 54.5141V54.8501H223.608C223.198 54.2901 222.936 53.6554 222.824 52.9461C222.712 52.1994 222.638 51.4341 222.6 50.6501L222.376 42.9781C222.302 41.4101 221.91 40.1781 221.2 39.2821C220.491 38.3861 219.296 37.9381 217.616 37.9381H213.304V54.8501H205.24V14.8661ZM213.304 32.3381H216.664C218.606 32.3381 220.099 31.8901 221.144 30.9941C222.19 30.0608 222.712 28.5114 222.712 26.3461C222.712 22.6501 220.846 20.8021 217.112 20.8021H213.304V32.3381ZM236.358 54.8501V14.8661H244.422V48.2421H258.702V54.8501H236.358ZM263.579 14.8661L268.843 30.3221H268.955L274.555 14.8661H283.291L272.931 39.1141V54.8501H264.867V39.1141L254.507 14.8661H263.579Z" fill="#FF6B00"/>
<path d="M139.086 78.7061H141.822V79.0661C141.822 82.1621 140.574 85.1861 136.542 85.1861C132.222 85.1861 130.878 82.4021 130.878 76.2821C130.878 70.1621 132.222 67.3781 136.566 67.3781C141.438 67.3781 141.726 70.9781 141.726 72.7541V73.0661H138.99V72.7781C138.99 71.1941 138.51 69.3701 136.542 69.4421C134.526 69.4421 133.614 70.6901 133.614 76.2101C133.614 81.7301 134.526 83.1221 136.542 83.1221C138.822 83.1221 139.086 80.5781 139.086 78.9941V78.7061ZM143.731 84.8501V67.7141H149.779C152.179 67.7141 154.123 68.9141 154.123 72.1301C154.123 74.3381 153.139 76.0421 151.267 76.3301V76.3781C152.971 76.5461 153.859 77.4821 153.955 79.8821C153.979 80.9861 154.003 82.3301 154.051 83.3621C154.099 84.2021 154.507 84.6101 154.867 84.8501H151.771C151.507 84.5381 151.387 84.0101 151.315 83.3381C151.219 82.3061 151.243 81.3461 151.195 80.0981C151.147 78.2261 150.571 77.4101 148.699 77.4101H146.467V84.8501H143.731ZM146.467 75.3461H148.651C150.403 75.3461 151.387 74.2901 151.387 72.5621C151.387 70.7381 150.595 69.7781 148.795 69.7781H146.467V75.3461ZM156.622 84.8501V67.7141H165.886V70.0181H159.358V74.7701H165.502V77.0741H159.358V82.5461H166.078V84.8501H156.622ZM171.009 78.4661H175.065L173.097 70.0181H173.049L171.009 78.4661ZM166.545 84.8501L171.417 67.7141H174.921L179.433 84.8501H176.577L175.521 80.6501H170.505L169.401 84.8501H166.545ZM182.118 84.8501V70.0181H178.038V67.7141H188.862V70.0181H184.854V84.8501H182.118ZM190.299 84.8501V67.7141H193.035V84.8501H190.299ZM198.211 84.8501L194.179 67.7141H197.083L199.987 81.3941H200.035L203.107 67.7141H206.011L201.691 84.8501H198.211ZM207.294 84.8501V67.7141H216.558V70.0181H210.03V74.7701H216.174V77.0741H210.03V82.5461H216.75V84.8501H207.294ZM232.414 78.7061H235.15V79.0661C235.15 82.1621 233.902 85.1861 229.87 85.1861C225.55 85.1861 224.206 82.4021 224.206 76.2821C224.206 70.1621 225.55 67.3781 229.894 67.3781C234.766 67.3781 235.054 70.9781 235.054 72.7541V73.0661H232.318V72.7781C232.318 71.1941 231.838 69.3701 229.87 69.4421C227.854 69.4421 226.942 70.6901 226.942 76.2101C226.942 81.7301 227.854 83.1221 229.87 83.1221C232.15 83.1221 232.414 80.5781 232.414 78.9941V78.7061ZM242.316 85.1861C238.38 85.1861 236.652 82.4021 236.652 76.2821C236.652 70.1621 238.38 67.3781 242.316 67.3781C246.252 67.3781 247.98 70.1621 247.98 76.2821C247.98 82.4021 246.252 85.1861 242.316 85.1861ZM242.316 83.1221C243.948 83.1221 245.244 82.1141 245.244 76.2101C245.244 70.4501 243.948 69.4421 242.316 69.4421C240.684 69.4421 239.388 70.4501 239.388 76.2101C239.388 82.1141 240.684 83.1221 242.316 83.1221ZM250.395 84.8501V67.7141H253.731L258.699 80.4821H258.747V67.7141H261.339V84.8501H258.003L253.035 71.7461H252.987V84.8501H250.395ZM271.977 78.7061H274.713V79.0661C274.713 82.1621 273.465 85.1861 269.433 85.1861C265.113 85.1861 263.769 82.4021 263.769 76.2821C263.769 70.1621 265.113 67.3781 269.457 67.3781C274.329 67.3781 274.617 70.9781 274.617 72.7541V73.0661H271.881V72.7781C271.881 71.1941 271.401 69.3701 269.433 69.4421C267.417 69.4421 266.505 70.6901 266.505 76.2101C266.505 81.7301 267.417 83.1221 269.433 83.1221C271.713 83.1221 271.977 80.5781 271.977 78.9941V78.7061ZM276.622 84.8501V67.7141H285.886V70.0181H279.358V74.7701H285.502V77.0741H279.358V82.5461H286.078V84.8501H276.622ZM290.913 69.7781V75.7061H292.857C294.321 75.7061 295.593 74.9141 295.593 72.7541C295.593 70.9061 294.849 69.7781 292.665 69.7781H290.913ZM288.177 84.8501V67.7141H293.601C296.889 67.7141 298.329 69.7781 298.329 72.7061C298.329 75.7781 296.529 77.7701 293.313 77.7701H290.913V84.8501H288.177ZM302.985 84.8501V70.0181H298.905V67.7141H309.729V70.0181H305.721V84.8501H302.985ZM310.662 79.5461H313.398V79.9781C313.398 82.0661 314.31 83.1221 316.206 83.1221C317.934 83.1221 318.798 81.8981 318.798 80.6261C318.798 78.8261 317.886 78.0341 316.35 77.5781L314.478 76.9301C311.982 75.9701 310.902 74.6741 310.902 72.2261C310.902 69.1061 313.014 67.3781 316.23 67.3781C320.622 67.3781 321.078 70.1141 321.078 71.8901V72.2741H318.342V71.9141C318.342 70.3541 317.646 69.4421 315.942 69.4421C314.766 69.4421 313.638 70.0901 313.638 71.9141C313.638 73.3781 314.382 74.1221 316.206 74.8181L318.054 75.4901C320.478 76.3541 321.534 77.6741 321.534 80.0261C321.534 83.6741 319.326 85.1861 315.87 85.1861C311.622 85.1861 310.662 82.3541 310.662 79.9541V79.5461Z" fill="white"/>
<path d="M86.62 0H15C6.71573 0 0 6.71573 0 15V86.62C0 94.9043 6.71573 101.62 15 101.62H86.62C94.9043 101.62 101.62 94.9043 101.62 86.62V15C101.62 6.71573 94.9043 0 86.62 0Z" fill="#FF6B00"/>
<path d="M38.3804 29.97C37.5504 29.97 36.7404 30 35.9404 30.06C34.4204 30.17 34.0704 32.28 35.4804 32.86C39.9704 34.72 42.8704 37.66 42.8704 40.96V70.57C42.8704 71.38 43.5204 72.03 44.3304 72.03H55.6304C56.4404 72.03 57.0904 71.38 57.0904 70.57V40.96C57.0904 40.85 57.0904 40.74 57.0804 40.64C57.0804 40.58 57.0804 40.53 57.0804 40.47C57.0804 40.36 57.0904 40.26 57.0904 40.15C57.0904 34.53 48.7104 29.97 38.3704 29.97H38.3804Z" fill="white"/>
<path d="M58.0204 30.04C58.0204 30.04 57.9604 30.04 57.9204 30.04C56.4504 30.04 55.8704 31.96 57.1204 32.73C60.6104 34.88 62.5104 38 62.5104 41.03V70.64C62.5104 71.45 63.1604 72.1 63.9704 72.1H75.2704C76.0804 72.1 76.7304 71.45 76.7304 70.64V41.03C76.7304 40.92 76.7304 40.81 76.7204 40.71C76.7204 40.65 76.7204 40.6 76.7204 40.54C76.7204 40.43 76.7304 40.33 76.7304 40.22C76.7304 34.6 68.3504 30.04 58.0104 30.04H58.0204Z" fill="white"/>
<path d="M28.5299 35.28C27.8699 35.14 27.1799 35.04 26.4699 34.98C25.6199 34.9 24.8799 35.58 24.8799 36.44V70.57C24.8799 71.38 25.5299 72.03 26.3399 72.03H36.2799C37.0899 72.03 37.7399 71.38 37.7399 70.57V44.07C37.7399 39.91 33.8499 36.4 28.5199 35.29L28.5299 35.28Z" fill="white"/>
</g>
<defs>
<clipPath id="clip0_2_807">
<rect width="322.32" height="101.62" fill="white"/>
</clipPath>
</defs>
</svg>
