<svg width="118" height="23" viewBox="0 0 118 23" fill="none" xmlns="http://www.w3.org/2000/svg">
<g clip-path="url(#clip0_49_236)">
<mask id="mask0_49_236" style="mask-type:luminance" maskUnits="userSpaceOnUse" x="0" y="0" width="118" height="23">
<path d="M118 0H0V23H118V0Z" fill="white"/>
</mask>
<g mask="url(#mask0_49_236)">
<mask id="mask1_49_236" style="mask-type:luminance" maskUnits="userSpaceOnUse" x="0" y="0" width="118" height="23">
<path d="M118 0H0V23H118V0Z" fill="white"/>
</mask>
<g mask="url(#mask1_49_236)">
<mask id="mask2_49_236" style="mask-type:luminance" maskUnits="userSpaceOnUse" x="0" y="0" width="118" height="23">
<path d="M118 0H0V23H118V0Z" fill="white"/>
</mask>
<g mask="url(#mask2_49_236)">
<path d="M112.947 20.4746C113.575 20.4746 113.99 20.9824 113.99 21.5923C113.99 22.2023 113.579 22.7101 112.947 22.7101C112.315 22.7101 111.903 22.22 111.903 21.5923C111.903 20.9647 112.342 20.4746 112.947 20.4746ZM112.947 22.495C113.429 22.495 113.779 22.0895 113.779 21.5888C113.779 21.0881 113.419 20.6791 112.947 20.6791C112.474 20.6791 112.114 21.0917 112.114 21.5888C112.114 22.086 112.478 22.495 112.947 22.495ZM112.967 21.8145H112.804V22.2094H112.495V20.9718H112.977C113.239 20.9718 113.416 21.0811 113.416 21.3737C113.416 21.5782 113.375 21.677 113.246 21.7616L113.433 22.2094H113.11L112.967 21.8145ZM112.804 21.5747H112.964C113.072 21.5747 113.127 21.5112 113.127 21.3984C113.127 21.2785 113.069 21.2186 112.947 21.2186H112.807V21.5747H112.804Z" fill="#0D173C"/>
<path d="M3.02817 10.6035L4.425 19.9509H4.97558L6.71907 10.8433H9.88318L11.6267 19.9509H12.1772L13.5775 10.6035H16.6056L14.4271 22.7117H9.61129L8.30282 15.3001L6.99435 22.7117H2.17851L0 10.6035H3.02817Z" fill="#0D173C"/>
<path d="M27.6919 16.633C27.6919 20.3635 26.4072 23.0009 22.4172 23.0009C18.4273 23.0009 17.1426 20.36 17.1426 16.633C17.1426 12.9061 18.4273 10.3145 22.4172 10.3145C26.4072 10.3145 27.6919 12.9061 27.6919 16.633ZM24.5754 16.633C24.5754 14.2847 24.1165 13.0718 22.4206 13.0718C20.7247 13.0718 20.2659 14.2812 20.2659 16.633C20.2659 18.9848 20.7247 20.2401 22.4206 20.2401C24.1165 20.2401 24.5754 18.9813 24.5754 16.633Z" fill="#0D173C"/>
<path d="M29.085 10.6036H32.1369V11.887C32.1369 11.887 34.0639 10.6776 35.8074 10.3145V13.583C33.7886 13.9956 32.1607 14.6021 32.1607 14.6021V22.7153H29.0884V10.6036H29.085Z" fill="#0D173C"/>
<path d="M48.4062 22.7107V5.75781H51.4786V11.1808C51.4786 11.1808 53.0624 10.3099 54.3232 10.3099C57.5349 10.3099 58.3608 12.4396 58.3608 16.1454V22.7072H55.2885V16.2159C55.2885 14.4 55.0573 13.2153 53.5688 13.2153C52.5594 13.2153 51.482 13.6031 51.482 13.6031V22.7072H48.4097L48.4062 22.7107Z" fill="#0D173C"/>
<path d="M69.7597 10.6035V22.7117H66.7077V22.0348C66.7077 22.0348 65.056 23.0044 63.8393 23.0044C60.4917 23.0044 59.8018 21.044 59.8018 16.9503V10.607H62.8741V16.9997C62.8741 19.154 62.9659 20.099 64.4783 20.099C65.6236 20.099 66.6806 19.6618 66.6806 19.6618V10.607H69.7529L69.7597 10.6035Z" fill="#0D173C"/>
<path d="M71.3779 22.7114V10.6032H74.4299V11.2802C74.4299 11.2802 76.0136 10.3105 77.1352 10.3105C78.4199 10.3105 79.3137 10.6737 80.0002 11.4494C80.0002 11.4494 82.1108 10.3105 83.8543 10.3105C86.9742 10.3105 87.8918 12.2463 87.8918 16.1461V22.7079H84.8195V16.2413C84.8195 14.4007 84.5884 13.216 83.2153 13.216C82.2977 13.216 81.081 13.6743 81.081 13.6743C81.081 13.6743 81.1727 15.4902 81.1727 16.4352V22.7079H78.1004V16.4845C78.1004 14.3055 77.9169 13.216 76.4962 13.216C75.4869 13.216 74.4537 13.6532 74.4537 13.6532V22.7114H71.3813H71.3779Z" fill="#0D173C"/>
<path d="M100.582 22.7114V10.6032H103.634V11.2802C103.634 11.2802 105.194 10.3105 106.502 10.3105C109.714 10.3105 110.54 12.4402 110.54 16.1461V22.7079H107.468V16.2413C107.468 14.4007 107.237 13.216 105.748 13.216C104.671 13.216 103.661 13.6532 103.661 13.6532V22.7114H100.589H100.582Z" fill="#0D173C"/>
<path d="M47.2173 10.6025H43.6284L40.1788 16.1559V5.75781H37.1064V22.7107H40.1788V17.1608L43.6284 22.7107H47.2173L43.4551 16.6566L47.2173 10.6025Z" fill="#0D173C"/>
<path d="M98.9986 10.6032H95.9467V11.2802C95.9467 11.2802 94.3867 10.3105 93.0782 10.3105C89.8665 10.3105 89.0645 13.4593 89.0645 17.1651C89.0645 20.8709 89.8903 23.0006 93.102 23.0006C94.2813 23.0006 95.6646 22.2143 95.9229 22.0591V22.7079H99.019V10.6032H98.9952H98.9986ZM93.8599 20.0952C92.3679 20.0952 92.1402 18.9104 92.1402 17.0699V15.455C92.2218 14.0763 92.5752 13.2195 93.8361 13.2195C94.9135 13.2195 95.9229 13.6567 95.9229 13.6567V19.672C95.8073 19.7214 94.8693 20.0987 93.8599 20.0987" fill="#0D173C"/>
<path d="M118 5.86371C117.987 4.80239 117.705 3.80806 117.222 2.94772L112.957 5.14089L113.901 0.243293C113.385 0.0846236 112.838 0 112.274 0C111.709 0 111.162 0.0846236 110.646 0.243293L111.59 5.14089L107.325 2.94772C106.843 3.80454 106.56 4.80239 106.547 5.86371L111.169 6.49134L108.423 9.32976C109.381 9.57305 110.115 10.0773 110.625 10.8177L112.291 7.31994L114.265 11.5159C115.179 11.1633 115.985 10.578 116.61 9.82692L113.381 6.49134L118.004 5.86371H118Z" fill="#0D173C"/>
</g>
</g>
</g>
</g>
<defs>
<clipPath id="clip0_49_236">
<rect width="118" height="23" fill="white"/>
</clipPath>
</defs>
</svg>
