<svg width="217" height="36" viewBox="0 0 217 36" fill="none" xmlns="http://www.w3.org/2000/svg">
<g clip-path="url(#clip0_49_426)">
<path d="M99.953 1.06112C100.326 0.930326 100.845 0.890341 101.052 1.30592C101.4 1.98902 101.294 2.78218 101.318 3.52253C101.335 5.06591 101.265 6.61373 101.351 8.15662C101.35 8.78048 101.763 9.4315 102.446 9.42163C104.593 9.52824 106.752 9.3698 108.898 9.49566C109.786 9.56278 109.91 10.6091 109.877 11.309C109.879 11.9166 109.737 12.8065 108.98 12.8672C106.883 12.96 104.777 12.8544 102.677 12.9116C102.105 12.9161 101.5 13.2552 101.374 13.8479C101.271 14.3983 101.319 14.9614 101.311 15.5182C101.319 19.3181 101.31 23.1181 101.315 26.92C101.343 28.3938 101.538 30.0472 102.661 31.1227C103.715 32.1118 105.287 32.217 106.651 32.0255C107.457 31.9371 108.182 31.5255 108.98 31.4223C109.524 31.3567 109.868 31.9095 109.887 32.3902C109.98 33.2525 110.066 34.4336 109.132 34.8763C106.752 35.9982 103.886 36.3501 101.407 35.3378C99.9145 34.7366 98.8045 33.4104 98.2887 31.909C97.5928 29.9016 97.5 27.7527 97.422 25.6501C97.3801 21.9197 97.4156 18.1893 97.4033 14.4609C97.4033 13.9693 97.2828 13.4067 96.8421 13.1239C95.889 12.5716 94.6383 13.2675 93.738 12.6115C93.0781 11.8633 93.0633 10.5366 93.74 9.7913C94.6131 9.08797 95.8426 9.74985 96.7957 9.26418C97.1836 9.04602 97.386 8.59886 97.3924 8.16452C97.458 6.48195 97.3672 4.79346 97.4788 3.11533C97.6816 1.92782 98.9762 1.46584 99.953 1.06112Z" fill="#0D173C"/>
<path d="M165.756 1.88784C166.781 1.71904 167.825 1.83751 168.86 1.80148C169.558 1.82072 170.302 1.72151 170.962 2.01222C171.447 2.22544 171.555 2.80736 171.546 3.28365C171.546 13.4151 171.542 23.5475 171.548 33.6804C171.544 34.1503 171.533 34.781 171.013 34.9859C170.249 35.2766 169.353 35.2726 168.592 34.9814C168.065 34.7791 167.953 34.1675 167.974 33.67C167.974 24.6003 167.972 15.533 167.976 6.4632C167.999 5.8803 167.807 5.20115 167.233 4.93759C166.561 4.68241 165.713 5.00916 165.135 4.48203C164.424 3.73921 164.569 2.05467 165.756 1.88784Z" fill="#0D173C"/>
<path d="M75.5442 9.15757C78.0619 8.80961 80.6916 9.21137 82.9946 10.2943C83.6377 10.5692 84.0212 11.3446 83.7369 12.0109C83.4714 12.694 83.0686 13.6347 82.1935 13.5987C81.0949 13.4467 80.1141 12.848 79.0239 12.6412C77.286 12.1501 75.1543 12.3248 73.8765 13.727C72.5966 15.26 73.0665 17.7313 74.5872 18.9317C77.2021 21.0594 80.8525 21.5066 83.2626 23.9399C85.5379 26.1688 85.5843 30.0087 83.8573 32.5753C82.5479 34.5239 80.2765 35.6393 77.9908 35.9241C75.3315 36.2173 72.6598 35.627 70.1653 34.7346C69.5538 34.4879 68.8243 34.1591 68.6432 33.4588C68.5336 32.6597 68.928 31.8498 69.4635 31.2787C69.9107 30.8399 70.5893 31.0003 71.0957 31.2387C73.1075 32.1602 75.3428 32.8393 77.5757 32.5333C79.3091 32.291 80.7745 30.798 80.9117 29.0394C81.0549 27.8607 80.4142 26.7344 79.5159 26.0173C77.5634 24.4334 75.0625 23.7992 72.9599 22.4641C71.3341 21.4562 69.8282 20.0244 69.3031 18.1286C68.542 15.341 69.7335 12.1609 72.1036 10.5139C73.1193 9.79427 74.3167 9.35352 75.5442 9.15757Z" fill="#0D173C"/>
<path d="M57.3311 30.106C56.3672 30.5068 55.5133 31.1331 54.5371 31.5082C52.3274 32.4193 49.7608 32.7125 47.4771 31.8961C45.7225 31.2678 44.413 29.7496 43.7635 28.035C43.1643 26.4723 42.8988 24.7705 42.9768 23.1028C43.038 22.3945 43.7971 22.0989 44.4214 22.1349C48.2234 22.1181 52.0273 22.1413 55.8297 22.1265C56.5528 22.1581 57.3183 21.8165 57.6347 21.1374C58.801 18.7248 58.879 15.8024 57.8286 13.3351C57.1643 11.7745 55.8569 10.5252 54.2962 9.87275C52.0905 8.93201 49.5999 8.96064 47.2678 9.31699C45.5453 9.61757 44.0522 10.6087 42.7384 11.7133C41.8085 12.4975 41.1294 13.5375 40.6081 14.6278C39.086 17.9134 38.8772 21.6413 39.2123 25.2009C39.4715 27.9318 40.4334 30.6287 42.1663 32.7757C43.6574 34.5342 45.8987 35.4918 48.1404 35.821C51.0021 36.2365 53.9014 35.5214 56.4911 34.3195C57.0691 34.0348 57.727 33.748 58.0577 33.1597C58.3237 32.3838 58.3548 31.5255 58.1969 30.7239C58.149 30.3315 57.7462 29.8947 57.3311 30.106ZM44.8326 14.8785C45.7205 13.6954 47.1311 13.0439 48.5526 12.77C50.2628 12.382 52.1966 12.6436 53.586 13.763C54.7078 14.6677 55.0494 16.3064 54.5899 17.637C54.4087 18.1726 53.892 18.5901 53.3096 18.5541C50.4903 18.5837 47.6686 18.5941 44.8494 18.6024C44.3499 18.6321 43.6495 18.4657 43.6199 17.8562C43.5315 16.7368 44.1895 15.7348 44.8326 14.8785Z" fill="#0D173C"/>
<path d="M153.894 30.0428C153.198 30.1736 152.629 30.6267 152.007 30.9327C149.915 32.0862 147.452 32.6301 145.078 32.2486C143.593 32.0186 142.181 31.2723 141.227 30.0996C139.865 28.4422 139.363 26.2616 139.232 24.1654C139.215 23.6023 139.11 22.934 139.54 22.4868C139.936 22.1176 140.518 22.1428 141.025 22.126C144.681 22.1324 148.335 22.13 151.99 22.13C152.722 22.1699 153.51 21.8812 153.865 21.2021C155.077 18.7604 155.151 15.7679 154.061 13.269C153.345 11.6219 151.903 10.3525 150.229 9.73357C148.072 8.93103 145.689 8.9715 143.445 9.33427C141.541 9.70543 139.898 10.8673 138.51 12.1747C136.524 14.3341 135.744 17.3093 135.444 20.1582C135.139 24.0534 135.43 28.2324 137.599 31.6044C138.73 33.5807 140.746 34.9281 142.922 35.5056C146.528 36.5243 150.435 35.628 153.649 33.8373C154.564 33.365 154.577 32.2283 154.554 31.334C154.516 30.8567 154.447 30.1968 153.894 30.0428ZM140.753 15.4713C141.632 14.0686 143.062 13.0123 144.715 12.7448C146.432 12.4072 148.378 12.6056 149.793 13.7171C150.942 14.5986 151.315 16.2284 150.881 17.5778C150.712 18.0926 150.251 18.5541 149.681 18.5482C146.862 18.5926 144.045 18.5862 141.227 18.6049C140.691 18.6345 139.93 18.5121 139.869 17.8503C139.829 16.9766 140.295 16.182 140.753 15.4713Z" fill="#0D173C"/>
<path d="M1.19741 10.0391C1.95207 9.59635 2.8632 9.39399 3.73187 9.46111C4.40904 9.57513 4.56254 10.3584 4.69975 10.9161C5.76684 15.9604 6.83146 21.0046 7.87141 26.0548C8.02096 26.6831 8.05699 27.379 8.44098 27.921C9.05251 28.2013 9.27807 27.3218 9.45329 26.9022C11.0204 21.6492 12.5257 16.3774 14.0587 11.116C14.2147 10.5721 14.4857 9.96899 15.0701 9.78539C15.7566 9.57562 16.5345 9.54699 17.2107 9.81944C17.8044 10.0702 17.9742 10.7557 18.1277 11.3189C19.334 16.1711 20.4578 21.0421 21.6449 25.8988C21.8388 26.6031 21.9548 27.3854 22.5239 27.9022C22.9775 27.6278 23.2114 27.1475 23.3254 26.6476C24.5865 21.399 25.9023 16.1608 27.233 10.927C27.3806 10.3007 27.7073 9.54156 28.4393 9.47493C29.2176 9.44433 30.0444 9.66347 30.6618 10.1447C31.1573 10.6254 30.9505 11.3678 30.7882 11.9497C28.6288 19.44 26.5178 26.9472 24.3289 34.4311C23.9937 35.8165 22.1315 36.0697 21.1192 35.2958C20.6404 34.8551 20.4904 34.1907 20.3196 33.5901C19.0512 28.7082 17.7817 23.8263 16.5409 18.9386C16.4155 18.4198 16.2087 17.9011 15.7556 17.5867C15.2102 18.1898 14.9837 18.9805 14.7404 19.7376C13.2755 24.4803 11.8841 29.2462 10.3911 33.98C10.1803 34.5471 10.0115 35.2687 9.37876 35.5071C8.74206 35.7262 8.01059 35.7519 7.37537 35.509C6.80382 35.2751 6.61183 34.6339 6.46228 34.09C4.60005 26.6377 2.74474 19.1834 0.894856 11.7271C0.775907 11.1654 0.621914 10.4018 1.19741 10.0391Z" fill="#0D173C"/>
<path d="M194.897 9.57118C196.957 9.24444 199.321 9.61758 200.788 11.2202C201.461 11.8801 201.74 12.8016 202.245 13.5735C202.376 13.8499 202.701 13.9002 202.973 13.8119C203.431 13.4975 203.688 12.9832 204.032 12.5592C205.464 10.6422 207.808 9.44286 210.208 9.44286C211.918 9.3703 213.69 10.0016 214.837 11.3006C216.231 12.8401 216.699 14.9846 216.713 17.0092C216.722 22.4898 216.713 27.9703 216.718 33.4509C216.713 34.0437 216.707 34.8788 216.003 35.0767C215.338 35.2514 214.584 35.2598 213.961 34.9479C213.428 34.6631 213.35 34.0012 213.356 33.4612C213.356 29.0305 213.358 24.6027 213.356 20.172C213.333 18.4953 213.506 16.756 212.897 15.1574C212.529 14.0903 211.739 13.1036 210.623 12.7789C208.989 12.2814 207.191 12.918 205.984 14.0631C204.407 15.5606 203.559 17.6583 203.101 19.7485C202.576 22.0999 202.735 24.5228 202.711 26.9121C202.705 29.2358 202.724 31.5595 202.705 33.8837C202.699 34.3793 202.524 35.016 201.961 35.1196C201.351 35.2208 200.7 35.2608 200.107 35.0732C199.47 34.8225 199.424 34.0486 199.424 33.4667C199.424 28.4037 199.428 23.3402 199.422 18.2772C199.373 16.7358 199.181 15.0739 198.19 13.8277C197.294 12.7058 195.683 12.4215 194.35 12.7754C192.64 13.2162 191.326 14.5656 190.464 16.0522C189.169 18.3127 188.705 20.9656 188.745 23.549C188.739 26.8554 188.758 30.1617 188.773 33.4681C188.767 33.9869 188.78 34.6552 188.254 34.9424C187.584 35.2736 186.745 35.2795 186.057 35.0076C185.532 34.7884 185.427 34.1685 185.439 33.6646C185.439 26.2863 185.441 18.9075 185.439 11.5292C185.409 10.966 185.563 10.2671 186.171 10.0721C186.89 9.85498 187.82 9.81056 188.413 10.3486C189.033 11.1585 188.413 12.3095 188.95 13.1574C189.503 13.3514 189.847 12.729 190.199 12.4151C191.392 10.9838 193.009 9.81994 194.897 9.57118Z" fill="#0D173C"/>
</g>
<defs>
<clipPath id="clip0_49_426">
<rect width="217" height="36" fill="white"/>
</clipPath>
</defs>
</svg>
