<svg width="252" height="74" viewBox="0 0 252 74" fill="none" xmlns="http://www.w3.org/2000/svg">
<path d="M55.0905 69.9018C77.4447 70.1849 82.7102 51.1653 82.9705 44.7057C83.5838 29.4492 74.4425 18.875 74.4425 18.875C74.4425 18.875 70.3262 23.9643 65.5395 26.3573C30.0949 44.0829 48.5348 69.064 49.052 69.0961C49.052 69.0961 50.7245 65.1732 53.2941 62.7594C69.6006 47.4443 71.5509 31.6537 71.5509 31.6537C71.5509 31.6537 69.562 50.6161 55.0148 63.869C55.0148 63.869 53.5014 65.5238 51.3627 69.3668C51.3627 69.3668 52.6124 69.9517 55.0905 69.9018Z" fill="#BBBEC7"/>
<path d="M52.5352 65.3326C69.9269 35.9086 48.8623 14.3701 40.5448 9.08112C20.8993 -3.4088 0 0.6193 0 0.6193C0 0.6193 3.57541 9.97232 3.08587 18.1509C-0.531117 78.7153 46.4397 73.384 46.8758 72.7228C46.8758 72.7228 42.9776 67.5028 41.7518 62.2482C33.9763 28.905 14.6447 14.2336 14.6447 14.2336C14.6447 14.2336 38.1284 31.3837 44.5246 60.8159C44.5246 60.8159 45.5538 64.0889 48.9918 69.8661C48.9918 69.8661 50.7143 68.6567 52.5352 65.3326Z" fill="#0D173C"/>
<path d="M251.394 39.0223V55H244.13V38.4481C244.13 36.9835 243.88 35.8018 243.381 34.903C242.731 33.6381 241.5 33.0057 239.686 33.0057C237.805 33.0057 236.374 33.6381 235.392 34.903C234.426 36.1513 233.944 37.9405 233.944 40.2706V55H226.854V18.3262H233.944V31.333C234.976 29.7519 236.166 28.6534 237.514 28.0376C238.878 27.4052 240.31 27.0889 241.808 27.0889C243.489 27.0889 245.012 27.3802 246.376 27.9627C247.758 28.5452 248.89 29.4357 249.772 30.634C250.521 31.6493 250.978 32.6978 251.145 33.7796C251.311 34.8448 251.394 36.5924 251.394 39.0223Z" fill="#0D173C"/>
<path d="M221.886 37.5493H214.596C214.463 36.5341 214.121 35.6187 213.572 34.8032C212.773 33.7047 211.533 33.1555 209.852 33.1555C207.456 33.1555 205.816 34.3455 204.934 36.7255C204.468 37.9904 204.235 39.6714 204.235 41.7684C204.235 43.7657 204.468 45.3718 204.934 46.5867C205.783 48.8502 207.381 49.982 209.727 49.982C211.392 49.982 212.574 49.5326 213.273 48.6339C213.972 47.7351 214.396 46.5701 214.546 45.1387H221.811C221.644 47.3024 220.862 49.3495 219.464 51.2802C217.234 54.3925 213.93 55.9487 209.553 55.9487C205.176 55.9487 201.955 54.6505 199.891 52.0541C197.827 49.4577 196.796 46.0874 196.796 41.9432C196.796 37.2664 197.936 33.6298 200.216 31.0334C202.496 28.437 205.642 27.1389 209.653 27.1389C213.065 27.1389 215.852 27.9045 218.016 29.4356C220.196 30.9668 221.486 33.6714 221.886 37.5493Z" fill="#0D173C"/>
<path d="M193.176 47.0111C192.993 48.6256 192.152 50.2649 190.654 51.9293C188.324 54.5756 185.062 55.8987 180.868 55.8987C177.406 55.8987 174.352 54.7836 171.706 52.5534C169.059 50.3232 167.736 46.6949 167.736 41.6686C167.736 36.9585 168.926 33.3469 171.306 30.8337C173.703 28.3205 176.807 27.064 180.618 27.064C182.882 27.064 184.92 27.4884 186.735 28.3372C188.549 29.186 190.047 30.5258 191.228 32.3566C192.293 33.971 192.984 35.8434 193.3 37.9737C193.484 39.222 193.558 41.0195 193.525 43.3662H174.901C175.001 46.0957 175.858 48.0097 177.473 49.1082C178.454 49.7906 179.636 50.1318 181.018 50.1318C182.482 50.1318 183.672 49.7157 184.588 48.8835C185.087 48.4342 185.528 47.81 185.911 47.0111H193.176ZM186.135 38.6728C186.019 36.7921 185.445 35.369 184.413 34.4037C183.398 33.4218 182.133 32.9308 180.618 32.9308C178.97 32.9308 177.689 33.4467 176.773 34.4786C175.875 35.5105 175.309 36.9086 175.076 38.6728H186.135Z" fill="#0D173C"/>
<path d="M164.715 47.0111C164.532 48.6256 163.692 50.2649 162.194 51.9293C159.864 54.5756 156.602 55.8987 152.407 55.8987C148.946 55.8987 145.892 54.7836 143.245 52.5534C140.599 50.3232 139.276 46.6949 139.276 41.6686C139.276 36.9585 140.466 33.3469 142.846 30.8337C145.242 28.3205 148.346 27.064 152.158 27.064C154.421 27.064 156.46 27.4884 158.274 28.3372C160.088 29.186 161.586 30.5258 162.768 32.3566C163.833 33.971 164.524 35.8434 164.84 37.9737C165.023 39.222 165.098 41.0195 165.065 43.3662H146.441C146.541 46.0957 147.398 48.0097 149.012 49.1082C149.994 49.7906 151.176 50.1318 152.557 50.1318C154.022 50.1318 155.212 49.7157 156.127 48.8835C156.627 48.4342 157.068 47.81 157.45 47.0111H164.715ZM157.675 38.6728C157.559 36.7921 156.984 35.369 155.953 34.4037C154.937 33.4218 153.672 32.9308 152.158 32.9308C150.51 32.9308 149.229 33.4467 148.313 34.4786C147.414 35.5105 146.849 36.9086 146.616 38.6728H157.675Z" fill="#0D173C"/>
<path d="M123.523 41.7685H115.709V55H108.069V18.2014H124.097C127.792 18.2014 130.738 19.15 132.935 21.0474C135.132 22.9447 136.23 25.8823 136.23 29.8601C136.23 34.204 135.132 37.2747 132.935 39.0722C130.738 40.8697 127.6 41.7685 123.523 41.7685ZM127.118 34.1042C128.116 33.2221 128.616 31.824 128.616 29.91C128.616 27.996 128.108 26.6313 127.093 25.8157C126.094 25.0002 124.688 24.5924 122.874 24.5924H115.709V35.4273H122.874C124.688 35.4273 126.103 34.9863 127.118 34.1042Z" fill="#0D173C"/>
</svg>
