<svg width="87" height="68" viewBox="0 0 87 68" fill="none" xmlns="http://www.w3.org/2000/svg">
<g clip-path="url(#clip0_49_210)">
<path fill-rule="evenodd" clip-rule="evenodd" d="M35.9219 43.099C34.8438 44.5521 33.3125 48.0469 33.6511 50.6615C33.9531 52.9688 35.7656 50.4115 36.0156 49.9063C36.9011 48.1302 37.1302 44.7917 36.1094 43.099C36.0469 43.099 35.9844 43.099 35.9219 43.099ZM50.0052 56.5208C48.2552 57.776 44.9167 57.5313 44.2396 55.4844C42.8333 56.0625 41.6823 57.2813 40.0781 56.9011C37.7865 56.3542 37.8125 53.1927 37.4323 50.5677C36.8073 51 36.5573 51.875 36.1094 52.5521C35.1667 53.9844 32.7448 56.401 30.625 54.349C27.3802 51.2135 29.9167 42.75 32.6146 40.5469C34.4896 39.0104 37.5938 39.0156 38 41.8698C38.7396 41.7604 39.8854 41.4792 40.5521 41.8698C41.4688 46.4219 39.5625 53.6875 43.8646 54.9167C43.8542 50.8698 44.0677 46.4792 44.4271 41.776C44.7344 37.776 45.4896 32.0052 41.6875 31.7552C43.2552 30.2396 47.7344 27.9063 48.3021 31.849C48.8177 35.4167 47.7292 39.8438 47.5469 43.6667C47.2813 49.3542 47.4688 54.0052 50.0052 56.5208Z" fill="#0D173C"/>
<path fill-rule="evenodd" clip-rule="evenodd" d="M36.5833 -0.00520325C36.9896 -0.00520325 37.4011 -0.00520325 37.8125 -0.00520325C40.5625 0.239589 42.849 2.10417 45.0886 3.58855C47.2917 5.04167 49.6511 6.59376 52.7448 6.80209C55.8542 7.01042 58.6667 5.9323 61.1615 4.62501C62.1927 6.08334 63.7761 7.42188 63.4271 10.0156C63.1875 11.8073 61.3542 12.7865 59.8386 12.9427C53.2761 13.625 48.7552 7.26563 44.1458 6.14063C45.7865 13.7656 44.3698 24.8177 39.7031 28.7292C36.0261 31.8125 30.6406 28.4375 29.9636 24.2865C27.974 25.6094 26.2761 28.3906 23.349 27.2188C17.6458 24.9323 16.4531 6.59896 23.4427 4.91146C24.6563 4.61459 28.3906 5.07292 28.4531 6.42188C28.4688 6.80209 27.9792 7.35417 27.7917 7.65105C26.3073 9.9948 25.3646 12.6979 24.7656 16.349C24.4427 18.3385 23.6979 24.3021 25.7136 24.5729C27.0313 24.75 29.0625 21.6615 29.2083 20.6979C29.3698 19.6615 28.9531 18.1823 29.0208 16.724C29.0781 15.4479 29.2604 14.125 29.3958 12.9427C29.6979 10.4219 29.7813 7.10417 31.6667 6.89584C33.8229 6.65626 34.8958 8.75001 36.2031 9.82292C34.4115 13.3958 33.2917 19.526 34.2188 24.8542C34.4636 26.2656 35.1042 28.4219 36.6771 28.3542C37.7552 28.3073 38.2083 27.1458 38.6615 26.1771C42.0833 18.8698 40.375 6.64584 35.2604 3.30209C34.8333 3.02605 33.224 2.71876 33.0833 1.97917C32.7865 0.385422 35.25 0.255213 36.5833 -0.00520325Z" fill="#0D173C"/>
<path fill-rule="evenodd" clip-rule="evenodd" d="M47.8333 9.92188C51.1042 9.04167 50.8021 13.9792 48.4948 14.1719C45.9271 14.3854 45.7188 10.4896 47.8333 9.92188Z" fill="#0D173C"/>
<path fill-rule="evenodd" clip-rule="evenodd" d="M61.5364 15.401C62.0156 15.849 61.7239 16.3438 61.9167 16.9167C62.1302 17.5521 62.7812 17.875 62.7656 18.4271C62.7448 19.4063 60.0417 20.5938 59.3646 21.0729C57.9792 22.0521 56.6875 22.8021 56.526 24.2865C59.2708 23.6667 63.5521 24.2396 62.3906 27.7865C59.2031 27.3333 55.5469 27.7344 53.4062 28.9219C52.6406 28.1615 51.8177 27.1406 51.9896 25.8021C52.1771 24.349 54.0521 22.9844 55.2969 22.0208C56.7604 20.8906 58.2812 19.9531 59.1771 18.901C56.651 19.1719 51.3698 19.4063 51.1406 16.9167C51.0156 15.5729 52.625 14.4688 53.4062 13.9844C55.1562 15.4948 58.5989 16.474 61.5364 15.401Z" fill="#0D173C"/>
<path fill-rule="evenodd" clip-rule="evenodd" d="M51.3281 28.4479C49.8281 28.6354 47.8438 29.0729 46.9792 28.1667C45.8125 26.9323 46.6823 24.1146 46.6979 21.6406C46.7083 19.4375 46.2136 17.849 45.9427 16.6302C46.9167 16.2448 49.4844 14.5521 50.3854 15.875C50.9688 16.7344 50.3698 19.0625 50.2917 20.7917C50.1511 23.8646 50.2344 26.9688 51.3281 28.4479Z" fill="#0D173C"/>
<path d="M24.0107 29.1089C26.3595 28.5988 28.2445 30.0107 28.833 31.7554C30.4684 36.6408 25.4372 40.6564 21.2705 40.9273C21.2965 42.0885 21.1039 43.0259 21.1768 44.2339C22.7756 43.0881 24.4165 40.9012 26.9424 41.8696C31.1455 43.4894 26.4378 53.2346 29.4951 56.146C30.5735 57.177 33.9742 57.2287 36.2969 57.4683C48.0469 58.6714 62.4844 61.6457 72.2188 57.0884C75.9895 55.3228 78.6514 52.661 81.1045 49.6245C83.5003 51.3849 85.6774 53.3697 86.4014 56.8071V58.2241C85.3909 63.3959 78.6145 64.8433 72.3125 64.8433C66.5313 64.8433 61.474 63.9683 56.625 63.0464C48.8282 61.5672 42.4271 59.8436 34.4062 58.979C31.9375 58.7134 27.8282 59.0887 26.2812 58.3179C24.1823 57.2814 24.4635 53.7658 24.5781 50.6616C24.6563 48.5158 24.9896 44.6616 22.5938 44.8023C21.9375 44.8387 21.7965 45.0676 21.2705 45.5571C20.9684 49.5103 21.6146 53.8439 22.6875 56.4273C20.7031 56.7346 18.2187 57.1714 17.3906 55.5777C16.6044 54.0514 17.0156 50.6973 17.1094 48.2964C17.224 45.4842 17.4216 42.9896 17.6768 41.021C16.9476 40.6513 15.6976 40.7966 15.6924 39.6978C16.3225 39.5259 17.0935 39.9789 17.958 39.8853C18.4736 36.8489 19.323 33.7293 20.7969 31.5679C21.5313 30.4846 22.641 29.4058 24.0107 29.1089ZM23.3975 32.7935C23.1715 32.8152 22.9743 32.9695 22.8018 33.2183C22.7674 33.2679 22.7346 33.3216 22.7021 33.3784C21.8879 34.8032 21.6615 38.4074 21.458 39.5103C22.2218 39.2923 22.9028 38.8151 23.4199 38.1597C23.4996 38.0588 23.5749 37.9533 23.6465 37.8443C24.2185 36.9728 24.5249 35.8512 24.416 34.6314C24.4092 34.555 24.4007 34.478 24.3906 34.4009C24.3809 34.332 24.3664 34.2563 24.3486 34.1763C24.2237 33.6152 23.9099 32.8465 23.5361 32.7964C23.4888 32.7899 23.4425 32.7891 23.3975 32.7935Z" fill="#0D173C"/>
<path fill-rule="evenodd" clip-rule="evenodd" d="M62.0104 37.8073C62.1771 36.9375 62.2604 35.3594 61.5365 35.0625C60.5313 36.7656 60.7969 39.7448 60.5938 42.25C61.2813 42.1823 61.8073 41.9531 62.3906 41.776C63.0781 42.375 63.9063 42.8438 64.0885 43.9531C63.5833 44.7656 62.0573 44.5625 60.7813 44.6146C60.6406 46.3229 60.7917 48.401 60.9688 50.9479C61.0833 52.5625 61.7865 56.2656 60.9688 57.0885C59.7813 58.2917 57.3438 56.5052 56.3385 56.2396C57.4531 53.1667 57.401 48.7396 57.2865 44.7083C55.6563 44.9896 54.5208 44.3646 54.8281 42.8177C55.474 42.6146 56.5104 42.8021 57.1875 42.625C57.3438 39.3594 55.75 35.3177 58.1354 34.026C58.3906 33.8854 58.8906 33.8542 59.4583 33.6458C60.151 33.3906 60.5833 32.9896 61.349 32.8906C63.1146 32.6615 65.0833 33.4063 65.224 34.9688C65.3906 36.7917 63.7969 37.6823 62.0104 37.8073Z" fill="#0D173C"/>
<path fill-rule="evenodd" clip-rule="evenodd" d="M51.8958 38.1823C54.6354 37.9896 54.4115 42.4167 51.9896 42.5313C49.3281 42.6615 49.3333 38.3698 51.8958 38.1823Z" fill="#0D173C"/>
<path fill-rule="evenodd" clip-rule="evenodd" d="M67.8698 49.625C66.4062 49.4323 64.0156 54.2969 66.3594 54.4427C68.0833 54.5521 68.4167 51.3125 67.9635 49.625C67.9323 49.625 67.901 49.625 67.8698 49.625ZM72.9739 55.5781C71.9583 56.9167 68.9739 56.7344 68.4375 55.1042C67.3333 56.1511 66.3854 56.8021 64.75 56.6198C61.5937 56.2604 61.0208 51.9271 63.4271 49.8125C64.3698 48.9844 66.125 48.375 68.0625 48.6771C68.2448 47.2292 67.1562 46.1302 65.7917 46.599C64.9687 46.8802 64.9062 47.7396 64.375 48.3958C61.8958 48.2344 62.8073 45.75 63.9948 44.8958C66.3229 43.2292 70.8073 43.6927 71.1823 46.6927C71.4583 48.9427 70.6198 51.4375 71.1823 53.3073C71.4635 54.2708 71.9792 55.0104 72.9739 55.5781Z" fill="#0D173C"/>
<path fill-rule="evenodd" clip-rule="evenodd" d="M54.1667 44.3281C55.0521 45.5573 54.4427 47.526 54.3542 49.4323C54.224 52.3021 54.2083 55.5573 55.3958 57.1875C53.1511 57.6354 50.9011 57.8021 50.4792 55.6719C50.2031 54.3073 50.7604 52.3281 50.7604 50.3802C50.7656 48.3698 50.3854 46.6302 49.9115 45.4635C51.0521 44.8646 52.3802 43.974 54.1667 44.3281Z" fill="#0D173C"/>
<path d="M13.2344 30.2448C16.599 30.4115 19.8024 31.8285 18.3389 35.3493C16.5107 39.7502 10.9638 42.4379 7.27637 44.7087C13.1458 47.2869 15.0421 53.8384 18.1514 59.1716C22.1462 57.9165 29.3493 57.9796 29.8701 62.193C30.2865 65.5677 27.0574 67.1774 24.1045 67.7712H21.6455C18.3281 67.3441 16.0002 65.922 14.2764 63.8962C11.4692 64.6826 8.73452 67.5418 4.91699 67.3962C2.08887 67.2868 0.245117 64.8903 1.13574 61.5309C4.30242 62.8017 9.39101 62.6976 12.4795 61.4372C11.3754 58.9893 10.3906 56.1871 9.45312 53.4059C8.55213 50.7237 7.78638 47.8017 5.57812 46.3122C5.27604 49.9528 5.62988 53.7607 6.52051 56.5212C4.89529 57.0578 1.12491 59.2654 0 56.8073V55.8591C0.432304 53.1507 1.22949 49.0776 1.22949 44.4216C1.22949 42.5518 1.25031 40.3069 1.04199 38.2809C0.864856 36.5778 0.1247 33.8902 0.567383 32.6091C1.26548 30.5832 5.25559 31.0313 6.90137 32.0417C5.72428 34.5156 5.95833 38.4063 5.57812 41.6823C9.52083 39.2604 11.4948 34.8698 13.2344 30.2448ZM25.7139 61.818C24.417 60.3441 21.2288 60.8695 19.4736 61.5309C20.4404 63.4352 21.5128 65.2252 24.2822 65.3171C24.4669 65.3232 24.6591 65.3216 24.8594 65.3122C24.9913 65.2721 25.1137 65.2178 25.2266 65.151C25.3017 65.1066 25.3729 65.0572 25.4395 65.0026C26.3388 64.2655 26.4562 62.6618 25.7139 61.818Z" fill="#0D173C"/>
</g>
<defs>
<clipPath id="clip0_49_210">
<rect width="86.4" height="67.7733" fill="white"/>
</clipPath>
</defs>
</svg>
