<svg width="115" height="39" viewBox="0 0 115 39" fill="none" xmlns="http://www.w3.org/2000/svg">
<g clip-path="url(#clip0_49_459)">
<path d="M19.52 36.09H18.77V38.48H17.77V32.42H20.09C20.3392 32.4031 20.5892 32.4386 20.8239 32.5242C21.0586 32.6097 21.2728 32.7435 21.4527 32.9168C21.6326 33.0901 21.7742 33.2991 21.8685 33.5305C21.9627 33.7618 22.0075 34.0103 22 34.26C22.0136 34.6711 21.8785 35.0733 21.6195 35.3929C21.3605 35.7125 20.995 35.928 20.59 36L22 38.48H20.8L19.52 36.09ZM19.87 35.18C20.1167 35.18 20.3532 35.082 20.5276 34.9076C20.702 34.7332 20.8 34.4966 20.8 34.25C20.8 34.0033 20.702 33.7668 20.5276 33.5924C20.3532 33.418 20.1167 33.32 19.87 33.32H18.77V35.18H19.87Z" fill="#0D173C"/>
<path d="M25.79 38.48V32.42H29.53V33.42H26.82V35H29.28V35.93H26.82V37.54H29.54V38.54L25.79 38.48Z" fill="#0D173C"/>
<path d="M37.08 37H34.51L33.95 38.52H32.86L35.22 32.46H36.41L38.77 38.52H37.65L37.08 37ZM34.87 36H36.72L35.8 33.52L34.87 36Z" fill="#0D173C"/>
<path d="M42.32 38.48V32.42H43.32V37.51H46.1V38.51L42.32 38.48Z" fill="#0D173C"/>
<path d="M54.66 38.48V32.42H58.4V33.42H55.69V35H58.15V35.93H55.69V37.54H58.41V38.54L54.66 38.48Z" fill="#0D173C"/>
<path d="M65.44 34.13C65.3934 33.8545 65.2455 33.6063 65.0253 33.4343C64.8052 33.2622 64.5286 33.1786 64.25 33.2C64.0058 33.1979 63.7694 33.2853 63.5852 33.4455C63.4009 33.6058 63.2817 33.8279 63.25 34.07C63.2492 34.2653 63.3217 34.4538 63.4532 34.5982C63.5846 34.7426 63.7655 34.8325 63.96 34.85L64.83 35.03C65.2698 35.0669 65.6804 35.2649 65.9831 35.586C66.2858 35.9072 66.4592 36.3288 66.47 36.77C66.4594 37.0354 66.3941 37.2958 66.2782 37.5348C66.1623 37.7738 65.9983 37.9864 65.7964 38.1591C65.5946 38.3318 65.3593 38.461 65.1053 38.5386C64.8512 38.6162 64.5839 38.6405 64.32 38.61C63.7654 38.6615 63.2123 38.4967 62.7763 38.1502C62.3403 37.8036 62.055 37.3019 61.98 36.75L62.98 36.48C62.9914 36.6509 63.0365 36.8178 63.1126 36.9712C63.1887 37.1246 63.2944 37.2614 63.4235 37.3739C63.5527 37.4863 63.7028 37.5721 63.8652 37.6264C64.0277 37.6806 64.1992 37.7022 64.37 37.69C65.1 37.69 65.47 37.32 65.47 36.85C65.47 36.38 65.18 36.14 64.66 36.03L63.81 35.85C63.3891 35.8057 62.9994 35.6078 62.7152 35.2942C62.4311 34.9806 62.2726 34.5732 62.27 34.15C62.3337 33.6618 62.5638 33.2104 62.9215 32.8721C63.2793 32.5337 63.7427 32.3291 64.2337 32.2927C64.7248 32.2563 65.2134 32.3903 65.6171 32.6721C66.0208 32.954 66.315 33.3665 66.45 33.84L65.44 34.13Z" fill="#0D173C"/>
<path d="M72.51 33.39V38.48H71.51V33.39H69.51V32.39H74.51V33.39H72.51Z" fill="#0D173C"/>
<path d="M80.57 37H78L77.44 38.52H76.35L78.71 32.46H79.9L82.26 38.52H81.14L80.57 37ZM78.36 36H80.21L79.29 33.52L78.36 36Z" fill="#0D173C"/>
<path d="M87 33.39V38.48H86V33.39H84V32.39H89V33.39H87Z" fill="#0D173C"/>
<path d="M92.74 38.48V32.42H96.48V33.42H93.77V35H96.23V35.93H93.77V37.54H96.49V38.54L92.74 38.48Z" fill="#0D173C"/>
<path d="M15.88 7.35001C15.88 5.49349 15.1425 3.71301 13.8297 2.40026C12.517 1.0875 10.7365 0.350006 8.88 0.350006H0V22.5H3.39V14.24H8.07L12.91 22.5H16.69L11.53 13.74C12.8024 13.2197 13.8935 12.3363 14.667 11.1999C15.4406 10.0636 15.8625 8.72457 15.88 7.35001ZM3.39 3.61001H8.89C9.86255 3.63362 10.7862 4.04137 11.4589 4.7441C12.1317 5.44682 12.4988 6.38735 12.48 7.36001C12.5042 8.33705 12.1398 9.28378 11.4667 9.99244C10.7937 10.7011 9.86699 11.1138 8.89 11.14H3.39V3.61001Z" fill="#0D173C"/>
<path d="M29.68 0.399994H26.29V22.5H29.68V0.399994Z" fill="#0D173C"/>
<path d="M75.16 3.29999C76.4969 3.26539 77.8176 3.59869 78.978 4.26352C80.1383 4.92835 81.0938 5.89916 81.74 7.06999L81.87 7.30999L84.87 5.58999L84.74 5.35999C83.757 3.70174 82.3533 2.33268 80.671 1.39143C78.9886 0.450178 77.0875 -0.0298354 75.16 -8.33068e-06C73.6406 -0.0407905 72.1287 0.226742 70.7155 0.78644C69.3024 1.34614 68.0173 2.18639 66.9379 3.25648C65.8584 4.32657 65.007 5.60429 64.4351 7.01252C63.8631 8.42076 63.5824 9.93029 63.61 11.45C63.5824 12.9697 63.8631 14.4792 64.4351 15.8875C65.007 17.2957 65.8584 18.5734 66.9379 19.6435C68.0173 20.7136 69.3024 21.5538 70.7155 22.1135C72.1287 22.6732 73.6406 22.9408 75.16 22.9C77.0858 22.9248 78.9837 22.438 80.6598 21.4893C82.3359 20.5406 83.7301 19.1639 84.7 17.5L84.83 17.27L81.83 15.59L81.7 15.83C81.0406 16.9872 80.0814 17.9453 78.9235 18.6035C77.7656 19.2616 76.4517 19.5955 75.12 19.57C74.045 19.6018 72.9749 19.4135 71.9754 19.0167C70.9758 18.6199 70.0679 18.023 69.3075 17.2625C68.547 16.5021 67.9501 15.5942 67.5533 14.5946C67.1565 13.5951 66.9682 12.525 67 11.45C66.9652 10.3695 67.1525 9.29327 67.5504 8.28806C67.9483 7.28284 68.5483 6.36999 69.3132 5.60601C70.0781 4.84203 70.9917 4.24317 71.9974 3.84652C73.0031 3.44986 74.0795 3.26385 75.16 3.29999Z" fill="#0D173C"/>
<path d="M102.77 1.50449e-06C101.264 -0.014766 99.7696 0.271535 98.3754 0.842098C96.9812 1.41266 95.7151 2.25599 94.6513 3.32258C93.5875 4.38917 92.7475 5.65752 92.1806 7.05319C91.6137 8.44885 91.3313 9.94371 91.35 11.45C91.3047 12.9801 91.567 14.5038 92.1213 15.9307C92.6757 17.3576 93.5107 18.6587 94.577 19.757C95.6433 20.8553 96.9192 21.7285 98.3291 22.3247C99.739 22.921 101.254 23.2282 102.785 23.2282C104.316 23.2282 105.831 22.921 107.241 22.3247C108.651 21.7285 109.927 20.8553 110.993 19.757C112.059 18.6587 112.894 17.3576 113.449 15.9307C114.003 14.5038 114.265 12.9801 114.22 11.45C114.236 9.94191 113.951 8.44578 113.381 7.04935C112.811 5.65292 111.969 4.38429 110.902 3.31784C109.836 2.25139 108.567 1.4086 107.171 0.838868C105.774 0.269139 104.278 -0.0160577 102.77 1.50449e-06ZM102.77 19.58C101.704 19.5881 100.648 19.3832 99.6621 18.9772C98.6766 18.5713 97.7822 17.9725 97.0313 17.2161C96.2805 16.4596 95.6883 15.5608 95.2897 14.5723C94.8911 13.5839 94.694 12.5257 94.71 11.46C94.71 9.32103 95.5597 7.26967 97.0722 5.75719C98.5847 4.2447 100.636 3.395 102.775 3.395C104.914 3.395 106.965 4.2447 108.478 5.75719C109.99 7.26967 110.84 9.32103 110.84 11.46C110.856 12.5265 110.659 13.5855 110.259 14.5747C109.86 15.5638 109.267 16.4631 108.515 17.2197C107.763 17.9762 106.868 18.5748 105.881 18.9802C104.894 19.3855 103.837 19.5895 102.77 19.58Z" fill="#0D173C"/>
<path d="M49.23 0.399978H40.63V22.5H44V14.8H49.22C50.1736 14.8246 51.1223 14.6553 52.0086 14.3026C52.8949 13.9499 53.7004 13.4209 54.3764 12.7478C55.0523 12.0746 55.5846 11.2713 55.941 10.3865C56.2975 9.50166 56.4706 8.55369 56.45 7.59998C56.4691 6.64751 56.2953 5.70102 55.939 4.81751C55.5827 3.934 55.0512 3.13174 54.3767 2.45904C53.7021 1.78634 52.8984 1.25713 52.0139 0.90326C51.1294 0.549393 50.1824 0.378196 49.23 0.399978ZM49.23 11.59H44V3.58998H49.22C49.7422 3.57963 50.2609 3.67703 50.7437 3.87609C51.2265 4.07516 51.6632 4.37162 52.0263 4.74697C52.3895 5.12232 52.6714 5.5685 52.8544 6.05765C53.0374 6.54681 53.1176 7.06844 53.09 7.58998C53.1175 8.11066 53.0376 8.63144 52.8552 9.1199C52.6728 9.60837 52.3918 10.0541 52.0297 10.4293C51.6677 10.8045 51.2322 11.1011 50.7506 11.3008C50.2689 11.5005 49.7513 11.5989 49.23 11.59Z" fill="#0D173C"/>
</g>
<defs>
<clipPath id="clip0_49_459">
<rect width="114.22" height="38.61" fill="white"/>
</clipPath>
</defs>
</svg>
