<svg width="593" height="102" viewBox="0 0 593 102" fill="none" xmlns="http://www.w3.org/2000/svg">
<path d="M86.62 98.62V101.62H15V98.62H86.62ZM98.62 86.62V15C98.62 8.37261 93.2474 3.00006 86.62 3H15C8.37257 3 3 8.37257 3 15V86.62C3.00006 93.2474 8.37261 98.62 15 98.62V101.62L14.6133 101.615C6.63628 101.413 0.206811 94.9837 0.00488281 87.0067L0 86.62V15C0 6.71572 6.71572 0 15 0H86.62C94.9042 6.18482e-05 101.62 6.71576 101.62 15V86.62L101.615 87.0067C101.41 95.1122 94.7749 101.62 86.62 101.62V98.62C93.2473 98.6199 98.6199 93.2473 98.62 86.62Z" fill="#111111"/>
<path d="M38.3804 29.97C37.5504 29.97 36.7404 30 35.9404 30.06C34.4204 30.17 34.0704 32.28 35.4804 32.86C39.9704 34.72 42.8704 37.66 42.8704 40.96V70.57C42.8704 71.38 43.5204 72.03 44.3304 72.03H55.6304C56.4404 72.03 57.0904 71.38 57.0904 70.57V40.96C57.0904 40.85 57.0904 40.74 57.0804 40.64C57.0804 40.58 57.0804 40.53 57.0804 40.47C57.0804 40.36 57.0904 40.26 57.0904 40.15C57.0904 34.53 48.7104 29.97 38.3704 29.97H38.3804Z" fill="#111111"/>
<path d="M58.0204 30.04C58.0204 30.04 57.9604 30.04 57.9204 30.04C56.4504 30.04 55.8704 31.96 57.1204 32.73C60.6104 34.88 62.5104 38 62.5104 41.03V70.64C62.5104 71.45 63.1604 72.1 63.9704 72.1H75.2704C76.0804 72.1 76.7304 71.45 76.7304 70.64V41.03C76.7304 40.92 76.7304 40.81 76.7204 40.71C76.7204 40.65 76.7204 40.6 76.7204 40.54C76.7204 40.43 76.7304 40.33 76.7304 40.22C76.7304 34.6 68.3504 30.04 58.0104 30.04H58.0204Z" fill="#111111"/>
<path d="M28.5299 35.28C27.8699 35.14 27.1799 35.04 26.4699 34.98C25.6199 34.9 24.8799 35.58 24.8799 36.44V70.57C24.8799 71.38 25.5299 72.03 26.3399 72.03H36.2799C37.0899 72.03 37.7399 71.38 37.7399 70.57V44.07C37.7399 39.91 33.8499 36.4 28.5199 35.29L28.5299 35.28Z" fill="#111111"/>
<path d="M586.564 44.7933C586.45 43.6437 585.961 42.7506 585.096 42.114C584.231 41.4774 583.058 41.1591 581.576 41.1591C580.569 41.1591 579.718 41.3017 579.025 41.5867C578.331 41.8622 577.799 42.247 577.428 42.7411C577.067 43.2352 576.887 43.7957 576.887 44.4228C576.868 44.9454 576.977 45.4014 577.215 45.791C577.462 46.1805 577.799 46.5178 578.227 46.8028C578.654 47.0784 579.148 47.3207 579.709 47.5297C580.269 47.7292 580.868 47.9002 581.505 48.0428L584.127 48.6698C585.4 48.9549 586.569 49.3349 587.633 49.81C588.697 50.285 589.619 50.8694 590.398 51.5629C591.177 52.2565 591.78 53.0736 592.208 54.0143C592.645 54.9549 592.868 56.0333 592.877 57.2494C592.868 59.0356 592.412 60.5843 591.509 61.8955C590.616 63.1971 589.324 64.209 587.633 64.9311C585.951 65.6437 583.923 66 581.547 66C579.191 66 577.139 65.639 575.39 64.9169C573.652 64.1948 572.293 63.1259 571.314 61.7102C570.345 60.285 569.837 58.5226 569.79 56.4228H575.761C575.828 57.4014 576.108 58.2185 576.602 58.8741C577.105 59.5202 577.775 60.0095 578.611 60.342C579.457 60.6651 580.412 60.8266 581.476 60.8266C582.521 60.8266 583.428 60.6746 584.198 60.3705C584.977 60.0665 585.581 59.6437 586.008 59.1021C586.436 58.5606 586.649 57.9382 586.649 57.2352C586.649 56.5796 586.455 56.0285 586.065 55.5819C585.685 55.1354 585.124 54.7553 584.383 54.4418C583.652 54.1283 582.754 53.8432 581.69 53.5867L578.512 52.7886C576.051 52.19 574.108 51.2542 572.683 49.981C571.257 48.7078 570.55 46.9929 570.559 44.8361C570.55 43.0689 571.02 41.5249 571.97 40.2043C572.93 38.8836 574.246 37.8527 575.918 37.1116C577.59 36.3705 579.49 36 581.619 36C583.785 36 585.675 36.3705 587.291 37.1116C588.915 37.8527 590.179 38.8836 591.082 40.2043C591.984 41.5249 592.45 43.0546 592.478 44.7933H586.564Z" fill="#111111"/>
<path d="M540.804 41.4871V36.3992H564.776V41.4871H555.84V65.5868H549.74V41.4871H540.804Z" fill="#111111"/>
<path d="M513.924 65.5868V36.3992H525.44C527.654 36.3992 529.54 36.822 531.098 37.6676C532.656 38.5037 533.844 39.6676 534.661 41.1593C535.487 42.6414 535.901 44.3517 535.901 46.2899C535.901 48.2281 535.483 49.9384 534.646 51.4205C533.81 52.9027 532.599 54.0571 531.012 54.8837C529.435 55.7103 527.525 56.1236 525.283 56.1236H517.943V51.1783H524.285C525.473 51.1783 526.452 50.974 527.221 50.5654C528 50.1474 528.58 49.5726 528.96 48.841C529.35 48.0999 529.544 47.2495 529.544 46.2899C529.544 45.3208 529.35 44.4752 528.96 43.7531C528.58 43.0215 528 42.4562 527.221 42.0571C526.442 41.6486 525.454 41.4443 524.257 41.4443H520.095V65.5868H513.924Z" fill="#111111"/>
<path d="M487.345 65.5868V36.3992H507.012V41.4871H493.516V48.4419H506V53.5298H493.516V60.4989H507.069V65.5868H487.345Z" fill="#111111"/>
<path d="M480.913 46.6176H474.67C474.556 45.81 474.323 45.0926 473.972 44.4656C473.62 43.829 473.169 43.2874 472.618 42.8409C472.067 42.3943 471.43 42.0523 470.708 41.8147C469.996 41.5772 469.221 41.4584 468.385 41.4584C466.875 41.4584 465.559 41.8337 464.437 42.5843C463.316 43.3254 462.447 44.4086 461.829 45.8337C461.212 47.2494 460.903 48.9691 460.903 50.9929C460.903 53.0736 461.212 54.8218 461.829 56.2375C462.456 57.6532 463.331 58.7221 464.452 59.4442C465.573 60.1663 466.87 60.5273 468.342 60.5273C469.169 60.5273 469.934 60.4181 470.637 60.1995C471.35 59.981 471.981 59.6627 472.532 59.2447C473.084 58.8171 473.54 58.2993 473.901 57.6912C474.271 57.0831 474.528 56.3895 474.67 55.6104L480.913 55.639C480.751 56.9786 480.347 58.2708 479.701 59.5154C479.065 60.7506 478.205 61.8575 477.122 62.8361C476.048 63.8052 474.765 64.5748 473.274 65.1449C471.791 65.7055 470.114 65.9857 468.243 65.9857C465.639 65.9857 463.312 65.3967 461.259 64.2185C459.217 63.0404 457.601 61.3349 456.414 59.1021C455.236 56.8694 454.646 54.1663 454.646 50.9929C454.646 47.81 455.245 45.1021 456.442 42.8694C457.639 40.6366 459.264 38.9359 461.316 37.7672C463.369 36.5891 465.677 36 468.243 36C469.934 36 471.502 36.2375 472.946 36.7126C474.399 37.1876 475.687 37.8812 476.808 38.7933C477.929 39.696 478.841 40.8029 479.544 42.114C480.257 43.4252 480.713 44.9264 480.913 46.6176Z" fill="#111111"/>
<path d="M448.054 36.3992V65.5868H442.724L430.026 47.2163H429.812V65.5868H423.641V36.3992H429.057L441.655 54.7555H441.912V36.3992H448.054Z" fill="#111111"/>
<path d="M417.063 50.9929C417.063 54.1758 416.46 56.8836 415.253 59.1164C414.056 61.3492 412.422 63.0546 410.351 64.2328C408.289 65.4014 405.971 65.9857 403.396 65.9857C400.802 65.9857 398.474 65.3967 396.413 64.2185C394.351 63.0404 392.721 61.3349 391.524 59.1021C390.327 56.8694 389.729 54.1663 389.729 50.9929C389.729 47.81 390.327 45.1021 391.524 42.8694C392.721 40.6366 394.351 38.9359 396.413 37.7672C398.474 36.5891 400.802 36 403.396 36C405.971 36 408.289 36.5891 410.351 37.7672C412.422 38.9359 414.056 40.6366 415.253 42.8694C416.46 45.1021 417.063 47.81 417.063 50.9929ZM410.807 50.9929C410.807 48.9311 410.498 47.1924 409.881 45.7767C409.272 44.361 408.413 43.2874 407.301 42.5558C406.189 41.8242 404.888 41.4584 403.396 41.4584C401.904 41.4584 400.603 41.8242 399.491 42.5558C398.379 43.2874 397.515 44.361 396.897 45.7767C396.289 47.1924 395.985 48.9311 395.985 50.9929C395.985 53.0546 396.289 54.7933 396.897 56.209C397.515 57.6247 398.379 58.6983 399.491 59.4299C400.603 60.1615 401.904 60.5273 403.396 60.5273C404.888 60.5273 406.189 60.1615 407.301 59.4299C408.413 58.6983 409.272 57.6247 409.881 56.209C410.498 54.7933 410.807 53.0546 410.807 50.9929Z" fill="#111111"/>
<path d="M383.809 46.6176H377.567C377.453 45.81 377.22 45.0926 376.868 44.4656C376.517 43.829 376.066 43.2874 375.514 42.8409C374.963 42.3943 374.327 42.0523 373.605 41.8147C372.892 41.5772 372.118 41.4584 371.282 41.4584C369.771 41.4584 368.455 41.8337 367.334 42.5843C366.213 43.3254 365.343 44.4086 364.726 45.8337C364.108 47.2494 363.8 48.9691 363.8 50.9929C363.8 53.0736 364.108 54.8218 364.726 56.2375C365.353 57.6532 366.227 58.7221 367.348 59.4442C368.469 60.1663 369.766 60.5273 371.239 60.5273C372.066 60.5273 372.83 60.4181 373.533 60.1995C374.246 59.981 374.878 59.6627 375.429 59.2447C375.98 58.8171 376.436 58.2993 376.797 57.6912C377.168 57.0831 377.424 56.3895 377.567 55.6104L383.809 55.639C383.648 56.9786 383.244 58.2708 382.598 59.5154C381.961 60.7506 381.101 61.8575 380.018 62.8361C378.944 63.8052 377.662 64.5748 376.17 65.1449C374.688 65.7055 373.011 65.9857 371.139 65.9857C368.536 65.9857 366.208 65.3967 364.156 64.2185C362.113 63.0404 360.498 61.3349 359.31 59.1021C358.132 56.8694 357.543 54.1663 357.543 50.9929C357.543 47.81 358.142 45.1021 359.339 42.8694C360.536 40.6366 362.161 38.9359 364.213 37.7672C366.265 36.5891 368.574 36 371.139 36C372.83 36 374.398 36.2375 375.842 36.7126C377.296 37.1876 378.583 37.8812 379.705 38.7933C380.826 39.696 381.738 40.8029 382.441 42.114C383.153 43.4252 383.609 44.9264 383.809 46.6176Z" fill="#111111"/>
<path d="M315.181 65.5868V36.3992H334.848V41.4871H321.352V48.4419H333.836V53.5298H321.352V60.4989H334.905V65.5868H315.181Z" fill="#111111"/>
<path d="M288.426 36.3992L295.481 58.5749H295.751L302.82 36.3992H309.661L299.599 65.5868H291.647L281.571 36.3992H288.426Z" fill="#111111"/>
<path d="M276.069 36.3992V65.5868H269.898V36.3992H276.069Z" fill="#111111"/>
<path d="M239.972 41.4871V36.3992H263.944V41.4871H255.008V65.5868H248.908V41.4871H239.972Z" fill="#111111"/>
<path d="M217.653 65.5868H211.04L221.116 36.3992H229.069L239.13 65.5868H232.517L225.206 43.069H224.978L217.653 65.5868ZM217.24 54.1141H232.86V58.9312H217.24V54.1141Z" fill="#111111"/>
<path d="M186.042 65.5868V36.3992H205.709V41.4871H192.213V48.4419H204.697V53.5298H192.213V60.4989H205.766V65.5868H186.042Z" fill="#111111"/>
<path d="M157.698 65.5868V36.3992H169.213C171.417 36.3992 173.299 36.7935 174.857 37.5821C176.425 38.3612 177.617 39.4681 178.434 40.9027C179.261 42.3279 179.674 44.0049 179.674 45.9336C179.674 47.8719 179.256 49.5393 178.42 50.936C177.584 52.3232 176.372 53.3873 174.786 54.1284C173.208 54.8695 171.299 55.24 169.056 55.24H161.346V50.2804H168.059C169.237 50.2804 170.216 50.1189 170.995 49.7958C171.774 49.4728 172.353 48.9882 172.733 48.3422C173.123 47.6961 173.318 46.8932 173.318 45.9336C173.318 44.9645 173.123 44.1474 172.733 43.4823C172.353 42.8172 171.769 42.3137 170.98 41.9716C170.201 41.6201 169.218 41.4443 168.03 41.4443H163.869V65.5868H157.698ZM173.46 52.3042L180.714 65.5868H173.902L166.805 52.3042H173.46Z" fill="#111111"/>
<path d="M151.266 46.6176H145.024C144.91 45.81 144.677 45.0926 144.325 44.4656C143.974 43.829 143.523 43.2874 142.971 42.8409C142.42 42.3943 141.784 42.0523 141.062 41.8147C140.349 41.5772 139.575 41.4584 138.739 41.4584C137.228 41.4584 135.912 41.8337 134.791 42.5843C133.67 43.3254 132.8 44.4086 132.183 45.8337C131.565 47.2494 131.257 48.9691 131.257 50.9929C131.257 53.0736 131.565 54.8218 132.183 56.2375C132.81 57.6532 133.684 58.7221 134.805 59.4442C135.926 60.1663 137.223 60.5273 138.696 60.5273C139.523 60.5273 140.287 60.4181 140.991 60.1995C141.703 59.981 142.335 59.6627 142.886 59.2447C143.437 58.8171 143.893 58.2993 144.254 57.6912C144.625 57.0831 144.881 56.3895 145.024 55.6104L151.266 55.639C151.105 56.9786 150.701 58.2708 150.055 59.5154C149.418 60.7506 148.558 61.8575 147.475 62.8361C146.401 63.8052 145.119 64.5748 143.627 65.1449C142.145 65.7055 140.468 65.9857 138.596 65.9857C135.993 65.9857 133.665 65.3967 131.613 64.2185C129.57 63.0404 127.955 61.3349 126.767 59.1021C125.589 56.8694 125 54.1663 125 50.9929C125 47.81 125.599 45.1021 126.796 42.8694C127.993 40.6366 129.618 38.9359 131.67 37.7672C133.722 36.5891 136.031 36 138.596 36C140.287 36 141.855 36.2375 143.299 36.7126C144.753 37.1876 146.04 37.8812 147.162 38.7933C148.283 39.696 149.195 40.8029 149.898 42.114C150.61 43.4252 151.067 44.9264 151.266 46.6176Z" fill="#111111"/>
</svg>
