<svg width="593" height="102" viewBox="0 0 593 102" fill="none" xmlns="http://www.w3.org/2000/svg">
<path d="M86.62 98.62V101.62H15V98.62H86.62ZM98.62 86.62V15C98.62 8.37261 93.2474 3.00006 86.62 3H15C8.37257 3 3 8.37257 3 15V86.62C3.00006 93.2474 8.37261 98.62 15 98.62V101.62L14.6133 101.615C6.63628 101.413 0.206811 94.9837 0.00488281 87.0067L0 86.62V15C0 6.71572 6.71572 0 15 0H86.62C94.9042 6.18482e-05 101.62 6.71576 101.62 15V86.62L101.615 87.0067C101.41 95.1122 94.7749 101.62 86.62 101.62V98.62C93.2473 98.6199 98.6199 93.2473 98.62 86.62Z" fill="white"/>
<path d="M38.3804 29.97C37.5504 29.97 36.7404 30 35.9404 30.06C34.4204 30.17 34.0704 32.28 35.4804 32.86C39.9704 34.72 42.8704 37.66 42.8704 40.96V70.57C42.8704 71.38 43.5204 72.03 44.3304 72.03H55.6304C56.4404 72.03 57.0904 71.38 57.0904 70.57V40.96C57.0904 40.85 57.0904 40.74 57.0804 40.64C57.0804 40.58 57.0804 40.53 57.0804 40.47C57.0804 40.36 57.0904 40.26 57.0904 40.15C57.0904 34.53 48.7104 29.97 38.3704 29.97H38.3804Z" fill="white"/>
<path d="M58.0204 30.04C58.0204 30.04 57.9604 30.04 57.9204 30.04C56.4504 30.04 55.8704 31.96 57.1204 32.73C60.6104 34.88 62.5104 38 62.5104 41.03V70.64C62.5104 71.45 63.1604 72.1 63.9704 72.1H75.2704C76.0804 72.1 76.7304 71.45 76.7304 70.64V41.03C76.7304 40.92 76.7304 40.81 76.7204 40.71C76.7204 40.65 76.7204 40.6 76.7204 40.54C76.7204 40.43 76.7304 40.33 76.7304 40.22C76.7304 34.6 68.3504 30.04 58.0104 30.04H58.0204Z" fill="white"/>
<path d="M28.5299 35.28C27.8699 35.14 27.1799 35.04 26.4699 34.98C25.6199 34.9 24.8799 35.58 24.8799 36.44V70.57C24.8799 71.38 25.5299 72.03 26.3399 72.03H36.2799C37.0899 72.03 37.7399 71.38 37.7399 70.57V44.07C37.7399 39.91 33.8499 36.4 28.5199 35.29L28.5299 35.28Z" fill="white"/>
<path d="M586.564 47.7933C586.45 46.6437 585.961 45.7506 585.096 45.114C584.231 44.4774 583.058 44.1591 581.576 44.1591C580.569 44.1591 579.718 44.3017 579.025 44.5867C578.331 44.8622 577.799 45.247 577.428 45.7411C577.067 46.2352 576.887 46.7957 576.887 47.4228C576.868 47.9454 576.977 48.4014 577.215 48.791C577.462 49.1805 577.799 49.5178 578.227 49.8028C578.654 50.0784 579.148 50.3207 579.709 50.5297C580.269 50.7292 580.868 50.9002 581.505 51.0428L584.127 51.6698C585.4 51.9549 586.569 52.3349 587.633 52.81C588.697 53.285 589.619 53.8694 590.398 54.5629C591.177 55.2565 591.78 56.0736 592.208 57.0143C592.645 57.9549 592.868 59.0333 592.877 60.2494C592.868 62.0356 592.412 63.5843 591.509 64.8955C590.616 66.1971 589.324 67.209 587.633 67.9311C585.951 68.6437 583.923 69 581.547 69C579.191 69 577.139 68.639 575.39 67.9169C573.652 67.1948 572.293 66.1259 571.314 64.7102C570.345 63.285 569.837 61.5226 569.79 59.4228H575.761C575.828 60.4014 576.108 61.2185 576.602 61.8741C577.105 62.5202 577.775 63.0095 578.611 63.342C579.457 63.6651 580.412 63.8266 581.476 63.8266C582.521 63.8266 583.428 63.6746 584.198 63.3705C584.977 63.0665 585.581 62.6437 586.008 62.1021C586.436 61.5606 586.649 60.9382 586.649 60.2352C586.649 59.5796 586.455 59.0285 586.065 58.5819C585.685 58.1354 585.124 57.7553 584.383 57.4418C583.652 57.1283 582.754 56.8432 581.69 56.5867L578.512 55.7886C576.051 55.19 574.108 54.2542 572.683 52.981C571.257 51.7078 570.55 49.9929 570.559 47.8361C570.55 46.0689 571.02 44.5249 571.97 43.2043C572.93 41.8836 574.246 40.8527 575.918 40.1116C577.59 39.3705 579.49 39 581.619 39C583.785 39 585.675 39.3705 587.291 40.1116C588.915 40.8527 590.179 41.8836 591.082 43.2043C591.984 44.5249 592.45 46.0546 592.478 47.7933H586.564Z" fill="white"/>
<path d="M540.804 44.4871V39.3992H564.776V44.4871H555.84V68.5868H549.74V44.4871H540.804Z" fill="white"/>
<path d="M513.924 68.5868V39.3992H525.44C527.654 39.3992 529.54 39.822 531.098 40.6676C532.656 41.5037 533.844 42.6676 534.661 44.1593C535.487 45.6414 535.901 47.3517 535.901 49.2899C535.901 51.2281 535.483 52.9384 534.646 54.4205C533.81 55.9027 532.599 57.0571 531.012 57.8837C529.435 58.7103 527.525 59.1236 525.283 59.1236H517.943V54.1783H524.285C525.473 54.1783 526.452 53.974 527.221 53.5654C528 53.1474 528.58 52.5726 528.96 51.841C529.35 51.0999 529.544 50.2495 529.544 49.2899C529.544 48.3208 529.35 47.4752 528.96 46.7531C528.58 46.0215 528 45.4562 527.221 45.0571C526.442 44.6486 525.454 44.4443 524.257 44.4443H520.095V68.5868H513.924Z" fill="white"/>
<path d="M487.345 68.5868V39.3992H507.012V44.4871H493.516V51.4419H506V56.5298H493.516V63.4989H507.069V68.5868H487.345Z" fill="white"/>
<path d="M480.913 49.6176H474.67C474.556 48.81 474.323 48.0926 473.972 47.4656C473.62 46.829 473.169 46.2874 472.618 45.8409C472.067 45.3943 471.43 45.0523 470.708 44.8147C469.996 44.5772 469.221 44.4584 468.385 44.4584C466.875 44.4584 465.559 44.8337 464.437 45.5843C463.316 46.3254 462.447 47.4086 461.829 48.8337C461.212 50.2494 460.903 51.9691 460.903 53.9929C460.903 56.0736 461.212 57.8218 461.829 59.2375C462.456 60.6532 463.331 61.7221 464.452 62.4442C465.573 63.1663 466.87 63.5273 468.342 63.5273C469.169 63.5273 469.934 63.4181 470.637 63.1995C471.35 62.981 471.981 62.6627 472.532 62.2447C473.084 61.8171 473.54 61.2993 473.901 60.6912C474.271 60.0831 474.528 59.3895 474.67 58.6104L480.913 58.639C480.751 59.9786 480.347 61.2708 479.701 62.5154C479.065 63.7506 478.205 64.8575 477.122 65.8361C476.048 66.8052 474.765 67.5748 473.274 68.1449C471.791 68.7055 470.114 68.9857 468.243 68.9857C465.639 68.9857 463.312 68.3967 461.259 67.2185C459.217 66.0404 457.601 64.3349 456.414 62.1021C455.236 59.8694 454.646 57.1663 454.646 53.9929C454.646 50.81 455.245 48.1021 456.442 45.8694C457.639 43.6366 459.264 41.9359 461.316 40.7672C463.369 39.5891 465.677 39 468.243 39C469.934 39 471.502 39.2375 472.946 39.7126C474.399 40.1876 475.687 40.8812 476.808 41.7933C477.929 42.696 478.841 43.8029 479.544 45.114C480.257 46.4252 480.713 47.9264 480.913 49.6176Z" fill="white"/>
<path d="M448.054 39.3992V68.5868H442.724L430.026 50.2163H429.812V68.5868H423.641V39.3992H429.057L441.655 57.7555H441.912V39.3992H448.054Z" fill="white"/>
<path d="M417.063 53.9929C417.063 57.1758 416.46 59.8836 415.253 62.1164C414.056 64.3492 412.422 66.0546 410.351 67.2328C408.289 68.4014 405.971 68.9857 403.396 68.9857C400.802 68.9857 398.474 68.3967 396.413 67.2185C394.351 66.0404 392.721 64.3349 391.524 62.1021C390.327 59.8694 389.729 57.1663 389.729 53.9929C389.729 50.81 390.327 48.1021 391.524 45.8694C392.721 43.6366 394.351 41.9359 396.413 40.7672C398.474 39.5891 400.802 39 403.396 39C405.971 39 408.289 39.5891 410.351 40.7672C412.422 41.9359 414.056 43.6366 415.253 45.8694C416.46 48.1021 417.063 50.81 417.063 53.9929ZM410.807 53.9929C410.807 51.9311 410.498 50.1924 409.881 48.7767C409.272 47.361 408.413 46.2874 407.301 45.5558C406.189 44.8242 404.888 44.4584 403.396 44.4584C401.904 44.4584 400.603 44.8242 399.491 45.5558C398.379 46.2874 397.515 47.361 396.897 48.7767C396.289 50.1924 395.985 51.9311 395.985 53.9929C395.985 56.0546 396.289 57.7933 396.897 59.209C397.515 60.6247 398.379 61.6983 399.491 62.4299C400.603 63.1615 401.904 63.5273 403.396 63.5273C404.888 63.5273 406.189 63.1615 407.301 62.4299C408.413 61.6983 409.272 60.6247 409.881 59.209C410.498 57.7933 410.807 56.0546 410.807 53.9929Z" fill="white"/>
<path d="M383.809 49.6176H377.567C377.453 48.81 377.22 48.0926 376.868 47.4656C376.517 46.829 376.066 46.2874 375.514 45.8409C374.963 45.3943 374.327 45.0523 373.605 44.8147C372.892 44.5772 372.118 44.4584 371.282 44.4584C369.771 44.4584 368.455 44.8337 367.334 45.5843C366.213 46.3254 365.343 47.4086 364.726 48.8337C364.108 50.2494 363.8 51.9691 363.8 53.9929C363.8 56.0736 364.108 57.8218 364.726 59.2375C365.353 60.6532 366.227 61.7221 367.348 62.4442C368.469 63.1663 369.766 63.5273 371.239 63.5273C372.066 63.5273 372.83 63.4181 373.533 63.1995C374.246 62.981 374.878 62.6627 375.429 62.2447C375.98 61.8171 376.436 61.2993 376.797 60.6912C377.168 60.0831 377.424 59.3895 377.567 58.6104L383.809 58.639C383.648 59.9786 383.244 61.2708 382.598 62.5154C381.961 63.7506 381.101 64.8575 380.018 65.8361C378.944 66.8052 377.662 67.5748 376.17 68.1449C374.688 68.7055 373.011 68.9857 371.139 68.9857C368.536 68.9857 366.208 68.3967 364.156 67.2185C362.113 66.0404 360.498 64.3349 359.31 62.1021C358.132 59.8694 357.543 57.1663 357.543 53.9929C357.543 50.81 358.142 48.1021 359.339 45.8694C360.536 43.6366 362.161 41.9359 364.213 40.7672C366.265 39.5891 368.574 39 371.139 39C372.83 39 374.398 39.2375 375.842 39.7126C377.296 40.1876 378.583 40.8812 379.705 41.7933C380.826 42.696 381.738 43.8029 382.441 45.114C383.153 46.4252 383.609 47.9264 383.809 49.6176Z" fill="white"/>
<path d="M315.181 68.5868V39.3992H334.848V44.4871H321.352V51.4419H333.836V56.5298H321.352V63.4989H334.905V68.5868H315.181Z" fill="white"/>
<path d="M288.426 39.3992L295.481 61.5749H295.751L302.82 39.3992H309.661L299.599 68.5868H291.647L281.571 39.3992H288.426Z" fill="white"/>
<path d="M276.069 39.3992V68.5868H269.898V39.3992H276.069Z" fill="white"/>
<path d="M239.972 44.4871V39.3992H263.944V44.4871H255.008V68.5868H248.908V44.4871H239.972Z" fill="white"/>
<path d="M217.653 68.5868H211.04L221.116 39.3992H229.069L239.13 68.5868H232.517L225.206 46.069H224.978L217.653 68.5868ZM217.24 57.1141H232.86V61.9312H217.24V57.1141Z" fill="white"/>
<path d="M186.042 68.5868V39.3992H205.709V44.4871H192.213V51.4419H204.697V56.5298H192.213V63.4989H205.766V68.5868H186.042Z" fill="white"/>
<path d="M157.698 68.5868V39.3992H169.213C171.417 39.3992 173.299 39.7935 174.857 40.5821C176.425 41.3612 177.617 42.4681 178.434 43.9027C179.261 45.3279 179.674 47.0049 179.674 48.9336C179.674 50.8719 179.256 52.5393 178.42 53.936C177.584 55.3232 176.372 56.3873 174.786 57.1284C173.208 57.8695 171.299 58.24 169.056 58.24H161.346V53.2804H168.059C169.237 53.2804 170.216 53.1189 170.995 52.7958C171.774 52.4728 172.353 51.9882 172.733 51.3422C173.123 50.6961 173.318 49.8932 173.318 48.9336C173.318 47.9645 173.123 47.1474 172.733 46.4823C172.353 45.8172 171.769 45.3137 170.98 44.9716C170.201 44.6201 169.218 44.4443 168.03 44.4443H163.869V68.5868H157.698ZM173.46 55.3042L180.714 68.5868H173.902L166.805 55.3042H173.46Z" fill="white"/>
<path d="M151.266 49.6176H145.024C144.91 48.81 144.677 48.0926 144.325 47.4656C143.974 46.829 143.523 46.2874 142.971 45.8409C142.42 45.3943 141.784 45.0523 141.062 44.8147C140.349 44.5772 139.575 44.4584 138.739 44.4584C137.228 44.4584 135.912 44.8337 134.791 45.5843C133.67 46.3254 132.8 47.4086 132.183 48.8337C131.565 50.2494 131.257 51.9691 131.257 53.9929C131.257 56.0736 131.565 57.8218 132.183 59.2375C132.81 60.6532 133.684 61.7221 134.805 62.4442C135.926 63.1663 137.223 63.5273 138.696 63.5273C139.523 63.5273 140.287 63.4181 140.991 63.1995C141.703 62.981 142.335 62.6627 142.886 62.2447C143.437 61.8171 143.893 61.2993 144.254 60.6912C144.625 60.0831 144.881 59.3895 145.024 58.6104L151.266 58.639C151.105 59.9786 150.701 61.2708 150.055 62.5154C149.418 63.7506 148.558 64.8575 147.475 65.8361C146.401 66.8052 145.119 67.5748 143.627 68.1449C142.145 68.7055 140.468 68.9857 138.596 68.9857C135.993 68.9857 133.665 68.3967 131.613 67.2185C129.57 66.0404 127.955 64.3349 126.767 62.1021C125.589 59.8694 125 57.1663 125 53.9929C125 50.81 125.599 48.1021 126.796 45.8694C127.993 43.6366 129.618 41.9359 131.67 40.7672C133.722 39.5891 136.031 39 138.596 39C140.287 39 141.855 39.2375 143.299 39.7126C144.753 40.1876 146.04 40.8812 147.162 41.7933C148.283 42.696 149.195 43.8029 149.898 45.114C150.61 46.4252 151.067 47.9264 151.266 49.6176Z" fill="white"/>
</svg>
